<?xml version="1.0" encoding="UTF-8" standalone="no"?>
<!-- Created with Inkscape (http://www.inkscape.org/) -->

<svg
   width="256mm"
   height="256mm"
   viewBox="0 0 256 256"
   version="1.1"
   id="svg1"
   inkscape:version="1.4 (e7c3feb1, 2024-10-09)"
   sodipodi:docname="favicon.svg"
   inkscape:export-filename="favicon.png"
   inkscape:export-xdpi="96"
   inkscape:export-ydpi="96"
   xmlns:inkscape="http://www.inkscape.org/namespaces/inkscape"
   xmlns:sodipodi="http://sodipodi.sourceforge.net/DTD/sodipodi-0.dtd"
   xmlns="http://www.w3.org/2000/svg"
   xmlns:svg="http://www.w3.org/2000/svg"
   xmlns:rdf="http://www.w3.org/1999/02/22-rdf-syntax-ns#"
   xmlns:cc="http://creativecommons.org/ns#"
   xmlns:dc="http://purl.org/dc/elements/1.1/">
  <title
     id="title1">Shannon Heylmun</title>
  <sodipodi:namedview
     id="namedview1"
     pagecolor="#ffffff"
     bordercolor="#000000"
     borderopacity="0.25"
     inkscape:showpageshadow="2"
     inkscape:pageopacity="0.0"
     inkscape:pagecheckerboard="0"
     inkscape:deskcolor="#d1d1d1"
     inkscape:document-units="mm"
     inkscape:zoom="0.90509668"
     inkscape:cx="313.22621"
     inkscape:cy="438.07475"
     inkscape:window-width="2032"
     inkscape:window-height="1186"
     inkscape:window-x="0"
     inkscape:window-y="30"
     inkscape:window-maximized="0"
     inkscape:current-layer="layer1"
     inkscape:export-bgcolor="#00000000" />
  <defs
     id="defs1">
    <rect
       x="254.76413"
       y="230.28897"
       width="287.02684"
       height="348.21473"
       id="rect4" />
    <rect
       x="178.00114"
       y="162.42604"
       width="684.19188"
       height="619.66647"
       id="rect3" />
    <rect
       x="321.51456"
       y="331.52712"
       width="18.912621"
       height="30.037692"
       id="rect2" />
    <rect
       x="164.65105"
       y="204.70131"
       width="630.79154"
       height="612.99142"
       id="rect1" />
  </defs>
  <g
     inkscape:label="Layer 1"
     inkscape:groupmode="layer"
     id="layer1">
    <rect
       style="fill:#d9d9ff;fill-opacity:0.42364532;stroke-width:0.206375"
       id="rect8"
       width="256"
       height="256"
       x="0"
       y="0" />
    <text
       xml:space="preserve"
       transform="scale(0.26458333)"
       id="text1"
       style="font-size:9.35704px;font-family:'Euphemia UCAS';-inkscape-font-specification:'Euphemia UCAS, Normal';text-align:start;writing-mode:lr-tb;direction:ltr;white-space:pre;shape-inside:url(#rect1);display:inline;fill:#ffffff;stroke-width:0.78"><tspan
         x="164.65039"
         y="213.13049"
         id="tspan5">S</tspan></text>
    <text
       xml:space="preserve"
       transform="scale(0.26458333)"
       id="text2"
       style="font-size:9.35704px;font-family:'Euphemia UCAS';-inkscape-font-specification:'Euphemia UCAS, Normal';text-align:start;writing-mode:lr-tb;direction:ltr;white-space:pre;shape-inside:url(#rect2);display:inline;fill:#ffffff;stroke-width:0.78" />
    <text
       xml:space="preserve"
       transform="scale(0.26458333)"
       id="text3"
       style="font-size:9.35704px;font-family:'Euphemia UCAS';-inkscape-font-specification:'Euphemia UCAS, Normal';text-align:start;writing-mode:lr-tb;direction:ltr;white-space:pre;shape-inside:url(#rect3);display:inline;fill:#ffffff;stroke-width:0.78" />
    <text
       xml:space="preserve"
       transform="scale(0.26458333)"
       id="text4"
       style="font-size:9.35704px;font-family:'Euphemia UCAS';-inkscape-font-specification:'Euphemia UCAS, Normal';text-align:start;writing-mode:lr-tb;direction:ltr;white-space:pre;shape-inside:url(#rect4);display:inline;fill:#ffffff;stroke-width:0.78" />
    <g
       id="text5"
       style="font-size:50.8px;font-family:Sans;-inkscape-font-specification:'Sans, Normal';white-space:pre;inline-size:163.905;fill:#ffffff;stroke-width:0.206375"
       transform="matrix(4.9250835,0,0,5.4370788,-419.86392,-233.7361)"
       aria-label="SH">
      <path
         style="font-family:Chalkduster;-inkscape-font-specification:'Chalkduster, Normal';fill:#ff9100;fill-opacity:0.55123675;stroke-width:0.208839"
         d="m 91.142472,85.779257 q -0.233009,-0.498507 -0.233009,-1.052404 0,-0.443117 0.29126,-0.609286 0.29126,-0.11078 0.29126,-0.498508 0,-0.387727 -0.174756,-0.609287 -0.174755,-0.276947 -0.407764,-0.609286 h 0.05825 q 0.05825,0 0.05825,0 0,-0.05539 0.05825,-0.05539 h 0.174755 q 0.466015,0 0.466015,0.276948 0,0.276949 0.29126,0.276949 h 0.174756 q -0.05825,-0.775456 0.116503,-1.384743 0.233008,-0.609286 0.466015,-1.163183 0.291261,-0.609287 0.524269,-1.218573 0.233007,-0.609287 0.233007,-1.384743 0.233007,0 0.29126,0.166169 0.05825,0.166168 0.349511,0.166168 0.815528,0 1.689307,-0.221558 0.873779,-0.221558 1.631053,-0.498506 l 0.466016,1.661691 q 0.116503,-0.05539 0.233008,-0.276949 0.116504,-0.221559 0.174755,-0.498508 0.116505,-0.276949 0.116505,-0.498507 0.05825,-0.276948 0,-0.387727 0.582519,-0.443119 1.048545,-0.720066 0.466022,-0.332339 1.106797,-0.332339 0.0582,0 0.17476,0.05539 0.17475,0 0.233,0 l -0.52426,0.498506 q 0.1165,0.276948 0.23301,0.664678 0.1165,0.332337 0.233,0.332337 0.40776,0 0.64077,-0.276948 0.233,-0.332338 0.40776,-0.720067 0.17475,-0.387726 0.34951,-0.775455 0.17475,-0.443117 0.40776,-0.664676 0.233,-0.221559 0.52427,-0.276948 0.29126,-0.110779 0.52427,-0.16617 0.23301,-0.110779 0.40776,-0.221559 0.17475,-0.166169 0.17475,-0.498507 0,-0.443118 -0.46601,-0.720066 -0.40777,-0.332338 -0.87379,-0.332338 -0.29125,0 -0.40775,0.166169 -0.0582,0.110779 -0.23301,0.110779 h -0.1165 q -0.11651,-0.720067 -0.23301,-1.440131 -0.1165,-0.775457 -0.29125,-1.440134 h -0.11651 -0.1165 q -0.11651,0 -0.29127,0.110781 -0.17475,0.05539 -0.233,0.110779 h -0.1165 -0.1165 q 0,-0.166169 -0.1165,-0.720066 -0.0582,-0.609288 -0.17476,-0.720067 -0.29125,-0.664676 -0.932047,-0.498507 -0.582528,0.166169 -1.106795,0.166169 v 0.387728 q -0.757276,0 -1.456298,-0.609287 -0.699023,-0.664675 -0.815528,-1.384742 -0.05825,0.05539 -0.233007,0.16617 -0.174756,0.110779 -0.29126,0.110779 l -0.116504,-0.110779 q -0.116503,-0.110779 -0.116503,-0.16617 -0.29126,-0.443118 -0.349512,-0.775455 0,-0.33234 0.116504,-0.886236 -0.349512,0.221559 -0.640772,0.387727 -0.233008,0.11078 -0.640771,0.11078 -0.640771,0 -0.524268,-0.609286 0.116504,-0.609288 0.116504,-0.997016 -0.174756,0 -0.640772,-0.110779 -0.466015,-0.110778 -0.466015,0.498507 0,0.11078 0.233008,0.387729 0.29126,0.221559 0.29126,0.332338 0,0.05539 -0.233008,0.332338 -0.174756,0.276949 -0.29126,0.387729 H 92.307502 92.191 q -0.116503,-0.11078 -0.174756,-0.387729 -0.05825,-0.276948 -0.116504,-0.332338 -0.05825,-0.05539 -0.349511,-0.110779 -0.29126,-0.05539 -0.407764,-0.11078 -0.757275,-0.443118 -1.106787,-1.107793 -0.349511,-0.664677 -0.466016,-1.329353 -0.05825,-0.664677 -0.05825,-1.107795 0.05825,-0.498507 0,-0.498507 l -0.757275,0.110779 -0.116504,0.05539 q -0.05825,0.05539 -0.174757,0.276949 -0.05825,0.166169 -0.116503,0.221558 0,0.05539 -0.05825,0.05539 -0.05825,0.05539 -0.116503,0.05539 0,-0.720066 -0.233007,-1.052405 -0.233009,-0.387727 -0.582519,-0.664677 -0.349513,-0.332336 -0.699024,-0.609284 -0.349511,-0.332339 -0.582519,-0.941626 0,-0.11078 -0.05825,-0.664677 0,-0.553897 0,-0.664676 0,-1.606301 0.582519,-2.658705 0.58252,-1.052405 1.223291,-1.938641 0.699024,-0.886235 1.281542,-1.661689 0.582519,-0.830846 0.582519,-1.938641 h 1.864063 q 0,-0.166169 -0.05825,-0.387727 -0.05825,-0.22156 -0.05825,-0.443119 0,-0.221558 0.116504,-0.387727 0.116503,-0.166169 0.466015,-0.166169 0.349512,0 0.640771,0.609286 0.349513,0.553898 1.048536,0.553898 v 0.553897 q 0.233007,0 0.29126,0.05539 0.05825,0 0.174755,-0.27695 v -2.381756 q 0,-0.11078 0.116505,-0.276948 0.116504,-0.166169 0.174755,-0.221559 0.524267,0 0.757274,0.276948 0.29126,0.276949 0.407764,0.664677 0.174756,0.332338 0.233008,0.775455 0.116503,0.387728 0.349511,0.720066 0.349513,-0.05539 0.349513,-0.498508 0,-0.443117 0,-0.498506 0,-0.941625 -0.466017,-1.107794 -0.407763,-0.221559 -1.398045,-0.830846 v -0.221559 h 2.038818 q 0.233006,0 0.34951,0.221559 0.174756,0.221559 0.233009,0.498508 0.05825,0.276948 0.05825,0.553897 0.05825,0.276948 0.05825,0.443118 h 0.815527 l 0.524269,-1.218574 1.514573,0.720066 q 0.23301,-0.553896 0.75727,-0.553896 0.466,0 0.466,0.332337 0,0.332339 0.29127,0.443118 0.0582,0.110779 0.233,-0.05539 0.0582,-0.05539 0.1165,-0.05539 v -0.941625 q 0.0582,0.05539 0.17476,0.05539 0.0582,0 0.1165,0.05539 0.0582,0 0.1165,0 0.29126,0.11078 0.29126,0.443118 0,0.276948 -0.17475,0.443117 -0.11651,0.166169 -0.11651,0.443118 v 0.110779 l 0.23301,0.221559 h 0.11651 q 0.46602,0 0.46602,-0.553897 0.0582,-0.553897 0.0582,-0.720066 0.40776,0 0.87377,0.387728 0.52426,0.332338 0.75727,0.664676 0.0582,-0.05539 0.233,-0.221558 0.23301,-0.221559 0.46602,-0.387728 0.233,-0.16617 0.40776,-0.276949 0.23301,-0.166169 0.29126,-0.166169 0.46602,0 0.69903,0.387728 0.23301,0.332338 0.29126,0.830845 0.11649,0.443117 0.11649,0.886236 0,0.443116 0.0582,0.609285 0.0582,0.110779 0.34951,0.387729 0.34952,0.221559 0.40777,0.332338 v 0.110779 q 0,0.05539 0.0582,0.110779 0,0.05539 -0.0582,0.16617 0,0.05539 0,0.110779 0,0.110781 -0.11652,0.498508 -0.0582,0.387728 -0.1165,0.498507 h -0.11651 q -0.29125,0 -0.40775,-0.110779 -0.0582,-0.166169 -0.17475,-0.332339 -0.0582,-0.166169 -0.29126,-0.276948 -0.23302,-0.166168 -0.87378,-0.166168 -0.0582,0.110779 -0.11651,0.166168 -0.1165,0.166169 -0.0582,0.221559 0.0582,0.05539 0.34951,0.110779 0.34952,0.05539 0.40777,0.11078 0.233,0.110779 0.29126,0.332338 0.0582,0.166169 0.1165,0.387727 0.0582,0.16617 0.17476,0.332338 0.11649,0.11078 0.46602,0.11078 0,0.221558 -0.23302,0.387728 -0.233,0.16617 -0.58252,0.332338 -0.29125,0.166169 -0.52426,0.387727 -0.23301,0.16617 -0.23301,0.498509 0,0.443117 0.29126,0.609286 0.29125,0.166169 0.29125,0.609287 -0.0582,0.11078 -0.0582,0.16617 v 0.221558 q -0.0582,-0.166169 -0.34951,-0.332338 -0.233,-0.221559 -0.58253,-0.443118 -0.29125,-0.221559 -0.64077,-0.332338 -0.29125,-0.16617 -0.46601,-0.16617 -0.23301,0 -0.34951,0.16617 -0.0582,0.110779 -0.29127,0.110779 h -0.11649 q -0.11651,-0.05539 -0.34952,-0.221559 -0.17476,-0.221558 -0.46601,-0.443117 -0.23301,-0.276949 -0.46601,-0.443119 -0.17476,-0.221558 -0.23301,-0.332337 -0.17476,-0.166169 -0.233,-0.332338 0,-0.22156 -0.0582,-0.443118 0,-0.221559 -0.11651,-0.332338 -0.0582,-0.11078 -0.3495,-0.11078 -0.29127,0 -1.04853,0.11078 -0.757275,0.05539 -1.631072,0.166169 -0.815527,0.05539 -1.572803,0.110779 -0.757275,0.05539 -1.048535,0.110779 -0.815526,0.05539 -1.22329,0.276948 -0.349512,0.166171 -0.524268,0.553898 -0.174755,0.332338 -0.349511,0.830846 -0.116504,0.443118 -0.466016,0.997015 -0.407763,-0.110779 -0.29126,-0.22156 0.174757,-0.110779 0.174757,-0.221558 -0.407764,0 -0.757277,-0.05539 -0.291259,-0.05539 -0.524266,0 -0.174757,0 -0.29126,0.276948 -0.05825,0.22156 -0.05825,0.830846 0,0.609287 0.524269,0.609287 0.407762,0 0.407762,-0.387728 0.05825,-0.443117 0.407764,-0.443117 0,0.332338 0.05825,0.941624 0.116504,0.553897 0.29126,1.107794 0.233007,0.553897 0.582518,0.997015 0.349512,0.387728 0.815528,0.387728 0,0 -0.05825,0 -0.116503,0.05539 -0.174756,0.110779 -0.05825,0.05539 -0.05825,0.110779 0,0.05539 -0.05825,0.05539 v 0.221559 q 0,0.332339 0.349512,0.443118 0.407764,0.110779 0.757275,0.276947 0.407764,0.110779 0.640772,0.387729 0.291259,0.276948 0.05825,0.830845 0.116504,-0.221559 0.524267,-0.221559 0.466016,0 0.58252,0.332339 0.174756,0.276948 0.233006,0.609287 0.116505,0.332337 0.291259,0.664676 0.174757,0.276949 0.640773,0.276949 h 0.233007 q -0.29126,-0.276949 -0.349511,-0.609288 0,-0.332337 0,-0.609286 0,-0.276948 -0.174756,-0.498508 -0.174756,-0.276948 -0.699022,-0.443117 0.116503,-0.05539 0.233006,-0.05539 0.174756,0 0.233008,0 0.466015,0 0.873779,0.276948 0.40777,0.276949 0.815541,0.609288 0.40777,0.332338 0.75728,0.664676 0.40775,0.332338 0.87378,0.443118 0.3495,0.11078 0.93202,0.276949 0.58252,0.166168 0.58252,0.221558 l 1.28155,2.381757 q 0,-0.11078 0.0582,-0.332338 0.1165,-0.276949 0.17475,-0.387728 0,0 0.0582,-0.05539 h 0.0582 0.0582 l 0.0582,0.05539 q 0.52428,0.775455 0.81553,1.71708 l 0.46602,-0.276948 q -0.233,0.553897 -0.11651,1.218573 0.11651,0.609288 0.40777,1.163184 0.34951,0.553897 0.87377,0.997015 0.52427,0.387728 1.10679,0.498507 0.40778,0.498507 0.75728,1.107795 0.34951,0.553896 0.34951,1.163182 0,0.332339 -0.58252,0.941626 -0.52427,0.553897 -0.99028,0.387728 0.46601,0.609286 0.46601,1.440131 0,0.33234 -0.17475,1.052406 -0.1165,0.664675 -0.69902,0.664675 h -0.1165 q -0.0582,-0.05539 -0.23302,-0.110779 -0.17475,-0.05539 -0.29126,-0.166169 v 0.166169 0.110779 q 0.0582,0.221559 0.17476,0.664676 0.1165,0.443119 0.1165,0.553898 l 0.23302,0.221558 q -0.11652,0.110779 -0.29128,0.387729 -0.17474,0.221559 -0.233,0.332338 -0.29126,0.553897 -0.46601,0.664676 -0.17476,0.11078 -0.52426,0.553898 0.17475,0.276947 0.52426,0.276947 v 0.720067 q -0.52426,0 -0.93204,-0.387728 -0.34951,-0.443118 -0.75726,-0.443118 l -0.11651,0.05539 -0.52427,2.658707 q 0,0.110779 -0.233,0.221558 h -0.11651 q -0.233,0 -0.3495,-0.166168 -0.0582,-0.166169 -0.11651,-0.332339 0,-0.16617 -0.0582,-0.332339 -0.0582,-0.166168 -0.29125,-0.166168 -0.52428,0 -0.64078,0.387727 -0.11651,0.443119 -0.17476,0.886236 h -0.29125 q -0.46601,0 -0.75728,-0.498507 -0.29125,-0.443119 -0.46601,-0.720067 -0.29126,0.05539 -0.29126,0.221559 0,0.166169 0,0.387729 0,0.276948 0.11651,0.332337 0.17475,0.11078 0.17475,0.387729 0,0.276949 -0.0582,0.553897 -0.0582,0.332337 -0.46602,0.332337 -0.0582,0 -0.1165,-0.05539 -0.0582,0 -0.174755,0 0.116505,-0.110779 0,-0.498507 -0.116513,-0.332338 -0.233016,-0.443118 H 99.588903 99.47239 q -0.0582,0 -0.0582,-0.05539 -0.291259,0 -0.640771,0 -0.29126,0.05539 -0.29126,0.387728 v 0.110779 q 0.05825,0.05539 0.233008,0.11078 0.233007,0.11078 0.29126,0.166169 l 0.05825,0.05539 q 0,0.05539 0.05825,0.05539 -0.58252,0 -0.699023,0.110779 -0.116503,0.110779 -0.05825,0.276948 0.05825,0.166168 0.05825,0.387728 0.05825,0.276949 -0.174756,0.553897 -0.05825,0.05539 -0.466016,0.110779 -0.407764,0.05539 -0.524267,0.110779 -0.116503,0 -0.174756,0.22156 -0.05825,0.221559 -0.116504,0.276948 0,0.05539 -0.05825,0.05539 H 96.7346 q -0.466015,0 -0.640771,-0.332338 -0.174756,-0.27695 -0.757276,-0.27695 -0.116504,0 -0.34951,0 -0.233009,0.05539 -0.29126,0.05539 -0.05825,0 -0.233009,0.221559 -0.174755,0.276948 -0.29126,0.276948 -0.116504,0 -0.407763,-0.276948 -0.233008,-0.221559 -0.349511,-0.221559 -0.116504,-0.05539 -0.466017,-0.16617 -0.291259,-0.05539 -0.640771,-0.221558 -0.349512,-0.110779 -0.699023,-0.221559 -0.291259,-0.05539 -0.466014,-0.11078 z m 2.271825,-0.221559 q -0.174756,0 -0.174756,0.221559 0,0.276949 0.174756,0.276949 0.233007,0 0.233007,-0.276949 0,-0.221559 -0.233007,-0.221559 z m -1.514551,-0.498506 h 0.29126 v -0.221559 h -0.29126 z m 2.038818,-0.720066 q -0.699023,0 -0.873779,0.221558 -0.174755,0.22156 0.05825,0.443118 0.233007,0.276948 0.815527,0.498506 0.640771,0.22156 1.51455,0.22156 0.05825,0 -0.116504,-0.22156 -0.174755,-0.221558 -0.466015,-0.498506 -0.29126,-0.221558 -0.58252,-0.443118 -0.291259,-0.221558 -0.349511,-0.221558 z m 0.524267,-0.720067 q 0,0.387728 0.233008,0.498508 0,-0.05539 0,-0.166169 0.05825,-0.05539 0.05825,-0.11078 0,-0.332338 -0.29126,-0.443117 z m -1.51455,-0.498507 q 0.05825,-0.11078 -0.116503,-0.11078 -0.174756,0 -0.174756,0.11078 0.05825,0.11078 0.174756,0.11078 0.116503,0 0.116503,-0.11078 z m 6.815488,-1.163184 0.233006,-0.276948 h -0.233006 z m 1.805811,-0.276948 q -0.40776,0 -0.52426,0.276948 h 0.75727 q 0,-0.276948 -0.23301,-0.276948 z m -5.359191,-2.880265 q -0.116503,0.110779 -0.699023,0.498508 -0.582519,0.387728 -0.582519,0.553898 l 1.805811,0.498506 z m 7.106741,-2.437146 q -0.1165,-0.05539 -0.1165,0.11078 0,0.166169 0.1165,0.166169 0.11651,-0.05539 0.11651,-0.166169 0,-0.11078 -0.11651,-0.11078 z m 4.60191,-0.997015 q -0.29126,0 -0.58253,0.166169 -0.23301,0.16617 -0.46601,0.387728 h 0.34951 q 0.69903,0 0.69903,-0.553897 z m -4.36891,0.05539 q -0.17474,0 -0.17474,0.276949 0,0.221558 0.17474,0.221558 0.23301,0 0.23301,-0.221558 0,-0.276949 -0.23301,-0.276949 z m 3.84465,-1.218573 q 0.29125,-0.166169 0.29125,-0.443119 h -0.29125 z m -1.80582,-0.22156 h 0.29125 v -0.498508 h -0.29125 z m 2.27183,-1.440131 q -0.17476,0 -0.17476,0.221558 0,0.221559 0.17476,0.221559 0.23301,0 0.23301,-0.221559 0,-0.221558 -0.23301,-0.221558 z m -4.83493,-1.938641 q 0,0.443119 0.17477,0.941626 0.23301,0.498508 0.87378,0.498508 h 0.233 q 0.17477,-0.05539 0.64078,-0.11078 0.52426,-0.05539 0.64077,-0.110779 0.0582,-0.05539 0.0582,-0.110779 0,-0.221559 -0.17476,-0.221559 -0.17476,-0.05539 -0.34951,-0.05539 -0.17475,-0.05539 -0.34951,-0.166169 -0.17475,-0.110779 -0.17475,-0.443117 -0.40777,0.276948 -0.58251,0.276948 -0.11651,-0.05539 -0.58252,-0.05539 0,-0.443119 0.11649,-0.664677 0.17476,-0.221559 -0.46602,-0.498507 0,0.110779 -0.0582,0.387727 0,0.221559 0,0.332338 z m 4.60192,0.941626 q -0.1165,-0.05539 -0.1165,0.110779 0,0.16617 0.1165,0.16617 0.1165,-0.05539 0.1165,-0.16617 0,-0.110779 -0.1165,-0.110779 z m -1.68932,-2.769486 q -0.64077,0 -1.16503,0.276949 -0.52427,0.221559 -0.52427,0.886236 0.46603,0 1.04853,-0.276949 0.64077,-0.332339 0.64077,-0.886236 z m -2.09706,-0.609285 q 0,0.498506 0.46601,0.775454 v -1.273962 q -0.46601,0 -0.46601,0.498508 z m -3.02908,0 q -0.34951,0.276948 -0.34951,0.498506 h 0.34951 z m 0.99027,0.498506 h 0.233 l -0.233,-0.720066 z m 3.55335,-0.498506 h 0.23302 l -0.23302,-0.22156 z M 99.647256,67.44527 q 0,0.276949 0.349519,0.387728 0.407785,0.110779 0.524285,0.110779 0.1165,-0.05539 0.233,-0.221558 0.11651,-0.166169 0.0582,-0.276949 z m 3.902874,0 q 0.0582,-0.110779 -0.11649,-0.110779 -0.11651,0 -0.11651,0.110779 0.0582,0.11078 0.11651,0.11078 0.11649,0 0.11649,-0.11078 z m 0.52428,-0.720066 q 0.17475,0.332338 0.52427,0.332338 v -0.332338 z m -7.864021,0 h 0.349512 q 0,-0.221558 -0.349512,-0.443118 z m 5.067931,0 h 0.40776 q 0,-0.166168 -0.0582,-0.387729 -0.0582,-0.221558 -0.3495,-0.332337 z m -0.99027,-0.221558 0.23301,-0.22156 h -0.524285 z m -2.038842,-1.218575 q -0.116504,-0.05539 -0.116504,0.11078 0,0.166169 0.116504,0.166169 0.291259,-0.276949 0,-0.276949 z m -3.786377,-0.720066 q 0,0.110779 0.05825,0.387728 0.116504,0.221559 0.174756,0.332338 0.29126,-0.110779 0.349512,-0.498507 0.05825,-0.387727 0.05825,-0.498506 -0.174756,0 -0.407764,0.05539 -0.233009,0.05539 -0.233009,0.221557 z m 4.543651,0.720066 h 0.233008 v -0.221559 h -0.233008 z m 2.912598,-1.495521 q -0.17475,0 -0.29125,0.221559 -0.0582,0.22156 -0.11651,0.498506 -0.0582,0.276949 -0.0582,0.553897 0,0.221559 0,0.276949 0.34952,0 0.64077,-0.221559 0.29126,-0.221558 0.29126,-0.553897 0,-0.166168 -0.1165,-0.443117 -0.0582,-0.332338 -0.34952,-0.332338 z m -1.39802,1.052404 q -0.17476,0 -0.17476,0.221558 0,0.221559 0.17476,0.221559 0.233,0 0.233,-0.221559 0,-0.221558 -0.233,-0.221558 z m 2.56305,-0.498506 q -0.11649,-0.110779 -0.11649,0.221557 0,0.332339 0.11649,0.276949 0.23302,-0.387727 0,-0.498506 z M 91.375479,63.346431 q -0.174756,0 -0.174756,0.276948 0,0.221558 0.174756,0.221558 0.233008,0 0.233008,-0.221558 0,-0.276948 -0.233008,-0.276948 z m 1.572802,0.276948 h 0.233008 v -0.276948 z m 7.048494,0 h 0.291275 l -0.291275,-0.276948 z m -5.300936,-0.720067 q -0.174756,0 -0.174756,0.22156 0,0.221559 0.174756,0.221559 0.174756,0 0.174756,-0.221559 0,-0.22156 -0.174756,-0.22156 z m 5.06793,0 q -0.174766,0 -0.174766,0.22156 0,0.221559 0.174766,0.221559 0.174753,0 0.174753,-0.221559 0,-0.22156 -0.174753,-0.22156 z m -8.38829,-0.276949 q -0.116504,-0.05539 -0.116504,0.110779 0,0.166169 0.116504,0.166169 0.116504,-0.05539 0.116504,-0.166169 0,-0.110779 -0.116504,-0.110779 z m -0.757275,-3.655719 q 0.582519,0 0.640771,0.609285 0.116504,0.609288 0.116504,0.886235 0.640771,-0.443116 0.699023,-1.273962 0.116504,-0.830846 0.116504,-1.440132 0,-0.11078 0,-0.16617 0,-0.110779 -0.29126,-0.221558 0.116504,0.609286 -0.291259,0.997014 -0.407764,0.387728 -0.990283,0.443118 z m -0.990283,0.553896 q 0.174755,0.276949 0.524267,0.276949 V 59.52454 Z m -0.58252,-1.440132 q 0,0.276948 0.233007,0.387728 0.29126,0.05539 0.582519,0.05539 0.466017,0 0.640773,-0.110779 0.233008,-0.166169 0.233008,-0.609287 0,-0.110779 -0.05825,-0.387728 0,-0.276949 -0.291259,-0.332338 0.174756,0.276949 0,0.498507 -0.116504,0.16617 -0.407764,0.276949 -0.233008,0.110779 -0.524267,0.166169 -0.233008,0.05539 -0.407764,0.05539 z M 87.880363,53.98557 q -0.233008,0 -0.233008,0.221559 0,0.221558 0.233008,0.221558 0.174756,0 0.174756,-0.221558 0,-0.221559 -0.174756,-0.221559 z m 5.242674,-0.276949 q 0,0.553897 0.582519,0.553897 v -0.553897 z m 0.582519,-0.720066 h 0.466015 v -0.221559 h -0.466015 z m 0.233008,-1.938639 q -0.174756,0 -0.174756,0.276949 0,0.221559 0.174756,0.221559 0.174755,0 0.174755,-0.221559 0,-0.276949 -0.174755,-0.276949 z M 92.657022,50.32985 q -0.29126,0.276949 -0.29126,0.498507 h 0.29126 z m 2.796093,0.276949 q -0.116505,-0.05539 -0.116505,0.110779 0,0.110779 0.116505,0.110779 0.116503,-0.05539 0.116503,-0.110779 0,-0.110779 -0.116503,-0.110779 z m 9.611575,0 h 0.34951 q 0,-0.332339 -0.34951,-0.498508 z m -5.65044,-2.714096 q -0.407768,0 -0.524271,0.332338 -0.116503,0.276948 -0.116503,0.553896 v 0.387729 q 0.233006,-0.110779 0.582518,-0.387729 0.407775,-0.276948 0.407775,-0.609285 0,-0.22156 -0.233016,-0.22156 z m 4.66016,0.553897 q -0.17476,0 -0.17476,0.221558 0,0.221559 0.17476,0.221559 0.17475,0 0.17475,-0.221559 0,-0.221558 -0.17475,-0.221558 z m -2.03882,-0.720066 q -0.17476,0 -0.17476,0.221558 0,0.22156 0.17476,0.22156 0.23301,0 0.23301,-0.22156 0,-0.221558 -0.23301,-0.221558 z"
         id="path8" />
      <path
         style="font-family:Chalkduster;-inkscape-font-specification:'Chalkduster, Normal';fill:#3737ff;fill-opacity:0.56183743;stroke-width:0.213805"
         d="m 129.64033,86.362452 q 0,-0.287824 0.17625,-0.518085 0.23499,-0.172695 0.23499,-0.460519 0,-1.439122 -0.52873,-1.957207 -0.52874,-0.518084 -1.76245,-0.633214 v -0.748344 l -0.64623,0.230259 v -0.115129 -0.11513 q 0.11749,-0.11513 0.52873,-0.575649 0.46999,-0.46052 0.58749,-0.575649 0.0587,0.115129 0.41124,0.172695 0.35248,0.05756 0.46998,0.115129 h 0.11749 q 0.52874,0 0.41124,-0.402954 -0.0587,-0.402954 -0.0587,-0.690779 -0.0587,0 -0.235,0.172694 -0.17624,0.115131 -0.23499,0 -0.0587,-0.05756 -0.29375,-0.402954 -0.23499,-0.345389 -0.46998,-0.690779 -0.23499,-0.402954 -0.41123,-0.748344 -0.17625,-0.402954 -0.17625,-0.575649 0,-0.748343 0.235,-1.151298 0.29373,-0.402955 1.11621,-0.287824 v -0.115131 -0.11513 q -0.0587,-0.172694 -0.1175,-0.518083 -0.0587,-0.34539 -0.11749,-0.402955 h -0.23499 q -0.29375,0 -0.58749,0.460519 -0.29374,0.402955 -0.29374,0.69078 -0.1175,-0.115131 -0.41124,-0.518085 -0.23499,-0.46052 -0.23499,-0.633214 -0.0587,-0.402955 0.0587,-0.575649 0.17624,-0.23026 0.35249,-0.34539 0.23499,-0.115129 0.41124,-0.230259 0.23499,-0.115131 0.29374,-0.46052 -0.58749,0.345389 -0.82248,0.23026 -0.23499,-0.11513 -0.35248,-0.460519 -0.0587,-0.402955 -0.11751,-0.921039 -0.0587,-0.575649 -0.29373,-1.036169 -0.235,-0.518084 -0.76373,-0.863474 -0.52874,-0.345388 -1.5862,-0.345388 -0.1175,0 -0.70498,0.05756 -0.52873,0 -1.17497,0.05756 -0.64623,0.05756 -1.17496,0.11513 -0.46998,0.05756 -0.58748,0.05756 l -0.1175,0.11513 q -0.1175,0.115129 -0.1175,0.230259 -0.11749,0 -0.23499,-0.11513 -0.11749,-0.172695 -0.29374,-0.345389 -0.11749,-0.172695 -0.23499,-0.287824 -0.1175,-0.172695 -0.17625,-0.172695 0,-0.11513 -0.17624,-0.05756 -0.17624,0 -0.41123,0.11513 -0.23499,0.05756 -0.46999,0.172695 -0.23499,0.05756 -0.29374,0.05756 -0.46999,0 -0.64624,0.23026 -0.11749,0.23026 -0.11749,0.575649 0,0.34539 0.0587,0.805908 0.0587,0.402956 0.0587,0.80591 v 0.345389 q 0,0.172695 0.0587,0.287824 l 0.11749,0.115131 q 0.1175,0.11513 0.1175,0.230259 0,0.11513 -0.1175,0.402954 -0.11749,0.287825 -0.11749,0.402955 v 0.115129 q 0,0.402956 0.41122,0.863474 0.41124,0.402955 0.41124,1.036169 0,0.402954 -0.0587,0.748344 -0.0587,0.287825 -0.52873,0.633214 0.17624,1.496688 0.17624,2.993375 0,1.496689 -0.76373,2.878246 0,0.05756 -0.23499,0.23026 -0.23499,0.172694 -0.23499,0.287825 -0.0587,0.11513 -0.0587,0.518084 0.0587,0.345389 0.0587,0.402954 -0.0587,0.11513 -0.29374,0.518084 -0.17625,0.402955 -0.29375,0.46052 0.23499,-0.46052 -0.11749,-0.921038 -0.35249,-0.46052 -0.82248,-0.633215 0.0587,0.11513 0.1175,0.46052 0.0587,0.345388 0,0.690778 0,0.34539 -0.17624,0.633215 -0.17625,0.345389 -0.52873,0.402954 -0.23499,-0.518085 -0.76374,-0.690779 -0.52873,-0.11513 -1.05746,-0.11513 h -0.1175 q -0.11749,0 -0.46998,0.172695 -0.3525,0.23026 -0.46999,0.34539 -0.29373,-0.11513 -0.41124,-0.690779 -0.11749,-0.518085 -0.11749,-0.633215 0,-0.287824 -0.0587,-1.151298 0,-0.921038 0,-1.208863 h 1.23372 v -1.266428 q -0.46999,0 -0.76374,0.11513 -0.23499,0.115129 -0.64622,0.115129 0,-0.978603 0.35249,-1.842077 0.35249,-0.921039 0.35249,-1.899642 h -0.93997 q 0.23499,-0.11513 0.46999,-0.690779 0.29373,-0.633214 0.29373,-0.921038 0,-0.172695 -0.46998,0.05756 -0.46999,0.172695 -0.64623,-0.05756 -0.17625,-0.978605 -0.235,-1.611818 -0.0587,-0.633215 -0.0587,-1.496689 0,-0.690779 0.11749,-1.093733 0.17625,-0.460519 0.17625,-1.208862 0,-0.69078 0.23499,-1.496689 0.29374,-0.805908 0.29374,-1.611818 0,-0.690779 -0.17624,-1.323992 -0.17624,-0.69078 -0.35249,-1.323994 -0.1175,-0.633214 -0.17625,-1.266428 0,-0.690778 0.17625,-1.323993 0,-0.05756 0.29374,-0.633213 0.29374,-0.57565 0.35249,-0.69078 v -0.690779 q 0,-0.805909 -0.23499,-0.978604 -0.23499,-0.172695 -1.05747,-0.172695 0.1175,-0.287824 0.64623,-0.748343 0.52873,-0.518085 0.88122,-1.036168 0.41124,-0.518084 0.41124,-0.92104 0,-0.402954 -0.93997,-0.518083 l -0.64623,-0.287825 v -0.230254 q 0,-0.69078 0.29374,-1.093734 0.35249,-0.460519 0.35249,-1.266428 0,-0.805909 -0.17624,-1.554253 -0.17625,-0.748344 -0.17625,-1.496687 0,-0.34539 0.35249,-0.69078 0.41123,-0.402954 0.76372,-0.11513 0,-0.518084 0.17625,-0.863474 0.23499,-0.402954 0.46999,-0.805908 0.23499,-0.402954 0.46998,-0.805909 0.23499,-0.402955 0.29374,-0.921039 h 0.41124 q 0.46998,0 0.70497,0.34539 0.235,0.287825 0.41124,0.690779 0.17625,0.345389 0.29374,0.690779 0.17625,0.287824 0.46999,0.287824 0.23499,0 0.35249,-0.115129 0.11749,-0.172695 0.17625,-0.34539 0.11749,-0.230259 0.17623,-0.345389 0.1175,-0.172695 0.41124,-0.172695 0.23499,0 0.46999,0.402954 0.29375,0.402954 0.52874,0.921039 0.23499,0.518084 0.35248,1.036168 0.1175,0.518085 0.1175,0.748344 v 0.05756 l -0.23499,0.345388 q -0.41124,-0.172695 -0.64623,-0.402954 -0.17625,-0.230259 -0.3525,-0.460519 -0.17624,-0.23026 -0.41123,-0.46052 -0.235,-0.230259 -0.64623,-0.402954 -0.23499,0 -0.29374,0.287824 0,0.230261 0,0.34539 0,0.23026 0,0.46052 0.0587,0.230259 0.29374,0.287825 v 2.245031 h 0.46999 v -1.266428 h 0.17624 q 0.1175,0 0.17624,0.05756 0.0587,0 0.1175,0 0.70498,0.690779 1.17497,1.554253 0.52873,0.863474 0.52873,1.899642 0,0.805909 -0.35249,1.208864 -0.29375,0.402954 -0.29375,1.036168 0,0.748344 0.41124,1.093734 0.46999,0.287825 0.46999,1.036168 0,0.633214 -0.17624,0.921039 -0.17625,0.230259 -0.41124,0.345389 -0.23499,0.11513 -0.41124,0.172695 -0.17624,0 -0.17624,0.172695 v 0.115129 q 0,0.287825 0.35249,0.402955 v 2.993375 q 0.23499,0 0.29374,0.05756 0.0587,0.05756 0.29374,-0.287824 l 0.70497,1.323993 0.46999,-1.208863 0.88122,1.266428 v -1.381558 h 0.70498 q 1.05747,0 2.40868,0.05756 1.40995,0 2.05618,0.230259 -0.0587,0.11513 -0.29373,0.57565 -0.17625,0.402954 -0.29374,0.518083 v 0.115131 q 0,0.05756 0.0587,0.11513 h 1.35121 v 1.381557 q 0.0587,0 0.11749,0.05756 0.1175,0.172694 0.23499,0.05756 0.1175,-0.11513 0.41124,-0.172695 0.3525,-0.11513 0.46999,-0.172694 -0.0587,-0.05756 -0.17625,-0.115131 -0.11749,-0.05756 -0.11749,-0.172694 v -0.11513 q 0,-0.402954 0.11749,-0.690779 0.17625,-0.345389 0.17625,-0.748343 0,-0.46052 -0.29374,-0.80591 -0.29374,-0.345389 -0.29374,-0.863473 0,-0.345389 0.11749,-0.57565 0.17625,-0.230259 0.3525,-0.402954 0.17624,-0.230259 0.29373,-0.402954 0.17625,-0.230259 0.17625,-0.518084 0,-0.633215 -0.35249,-1.093734 -0.29374,-0.460519 -0.29374,-1.266428 0.41124,0 0.52873,0.23026 0.17625,0.172694 0.29375,0.402954 0.11749,0.23026 0.29374,0.460519 0.17624,0.172695 0.64623,0.172695 v -1.842053 h -1.17496 l 0.0587,-0.287824 q 0,-0.172695 0.0587,-0.518084 0.1175,-0.34539 0.235,-0.748344 0.17624,-0.46052 0.29373,-0.805909 0.1175,-0.34539 0.17625,-0.518085 0.35249,0.115131 0.76373,-0.115129 0.46999,-0.23026 0.82247,-0.57565 0.41124,-0.402954 0.64623,-0.805908 0.235,-0.402954 0.235,-0.633215 -0.46999,0 -0.70498,-0.05756 -0.17625,-0.115129 -0.58749,0.230259 0.0587,-0.115129 0.0587,-0.402954 0,-0.287824 -0.0587,-0.402954 -0.0587,-0.05756 -0.35248,-0.11513 -0.23499,-0.11513 -0.23499,-0.172695 0,0 -0.0587,-0.05756 0,-0.402954 0.29374,-0.575649 0.35248,-0.172694 0.70498,-0.287825 0.41124,-0.115129 0.70497,-0.287824 0.3525,-0.23026 0.3525,-0.690779 0,-0.748344 -0.58749,-1.151299 -0.23499,0.46052 -0.46998,0.690779 -0.17625,0.172695 -0.64623,0.172695 l -0.29374,-0.05756 q 0.46998,-0.633215 0.52873,-1.381559 0.1175,-0.805908 0.1175,-1.496687 0.35248,0 0.46998,-0.23026 0.1175,-0.23026 0.17624,-0.460519 0.0587,-0.287824 0.17625,-0.518085 0.1175,-0.230259 0.41124,-0.230259 0,0.11513 0,0.518084 0,0.34539 0,0.748344 0.0587,0.402954 0.1175,0.805909 0.11749,0.402955 0.29374,0.575649 0.0587,0.05756 0.29373,-0.05756 0.1175,-0.05756 0.17625,-0.115129 v -0.978605 h 0.64623 q 0,0.172695 0.0587,0.518085 0.0587,0.345389 0.0587,0.748344 0.0587,0.402955 0.1175,0.805909 0.0587,0.345389 0.0587,0.518084 0,0.05756 0.1175,0.287824 0.17623,0.172695 0.23499,0.287825 h 0.11749 q 0.41124,0 0.52874,-0.575649 0.11749,-0.633214 0.11749,-0.978604 v -0.460519 q 0,-0.11513 -0.11749,-0.460519 -0.0587,-0.402955 -0.0587,-0.460519 0,-0.05756 0.0587,-0.11513 0.11749,-0.115131 0.11749,-0.115131 0.52873,0.230261 0.70498,0.69078 0.23499,0.402954 0.29374,0.863473 0.1175,0.46052 0.17624,0.978604 0.0587,0.460519 0.3525,0.863474 0.0587,0 0.41124,0.402954 0.41123,0.345389 0.41123,0.402955 0,0.05756 -0.1175,0.633213 -0.0587,0.518085 -0.17624,1.208864 -0.0587,0.633214 -0.17625,1.266428 -0.11749,0.575649 -0.11749,0.805908 0,0.115131 0,0.57565 0,0.402955 0,0.921039 0,0.460519 0,0.863474 0,0.402954 0,0.518083 0,0.46052 -0.23499,0.633215 -0.235,0.172695 -0.52874,0.345389 -0.235,0.115131 -0.46999,0.287825 -0.23499,0.172694 -0.23499,0.633214 v 0.518084 q 0.1175,0.402954 0.29375,0.402954 l 0.93997,-0.633213 v 0.402954 0.460519 q -0.1175,0.11513 -0.235,0.46052 -0.1175,0.287825 -0.1175,0.345389 0,0.11513 0.235,0.172695 0.29374,0.05756 0.35249,0.11513 0,0 0.0587,0.230259 0.1175,0.172695 0.235,0.460519 0.1175,0.287825 0.17624,0.57565 0.11749,0.287824 0.11749,0.460519 v 0.172695 0.05756 q 0,0.115131 -0.11749,0.46052 -0.1175,0.34539 -0.1175,0.402954 v 3.971979 q -0.41123,0.633215 -0.93997,0.863474 -0.52873,0.23026 -0.88122,0.69078 v 1.842077 q 0.64623,1.496687 0.88122,2.878245 0.29375,1.381559 -0.29374,3.223636 l 0.29374,0.287825 0.58749,2.47529 q 0.0587,-0.05756 0.29374,-0.115129 0.23499,-0.11513 0.29373,-0.11513 l 0.11751,0.11513 q 0,0.05756 0.11749,0.05756 0.0587,0 0.0587,0.05756 0,0.80591 -0.46998,1.496689 -0.41124,0.633213 -0.41124,1.439123 0,0.345388 0.17624,0.518083 0.235,0.23026 0.235,0.518084 0,0.05756 -0.0587,0.05756 0,0.05756 0,0.115129 v 0.11513 q -0.11749,-0.11513 -0.46998,-0.345389 -0.35249,-0.172695 -0.46999,-0.23026 l -0.11749,-0.05756 q -0.29375,0 -0.64623,0.518084 -0.29374,0.518085 -0.41124,0.633215 v -1.266428 q -0.88122,0 -1.35121,0.115129 -0.41124,0.172695 -0.70498,0.402955 -0.23499,0.287824 -0.52873,0.633214 -0.29374,0.345389 -0.82247,0.690779 l -0.82248,-0.575649 z m 3.1724,-2.187467 q -0.58747,0 -0.58747,0.633215 h 0.58747 z m -3.70113,-2.475292 q -0.1175,-0.05756 -0.1175,0.172695 0,0.23026 0.1175,0.172695 0.11749,-0.05756 0.11749,-0.172695 0,-0.115129 -0.11749,-0.172695 z m -11.92588,-6.21701 q -0.29374,0 -0.58749,0.172695 -0.23499,0.115129 -0.23499,0.518083 h 0.82248 z m 15.03954,0.402954 q -0.235,0 -0.235,0.287824 0,0.230261 0.235,0.230261 0.23499,0 0.23499,-0.230261 0,-0.287824 -0.23499,-0.287824 z m -15.80327,-3.166071 q -0.46998,0.287825 -0.70497,0.80591 -0.235,0.460518 -0.235,0.921038 v 0.23026 q 0.41123,-0.172695 0.64623,-0.748344 0.29374,-0.633215 0.29374,-1.093733 z m -4.05362,-1.957207 q -0.29374,0 -0.52874,0.172695 -0.17624,0.11513 -0.17624,0.402955 h 0.70498 z m 14.74579,-0.345388 q 0,0.115129 0,0.345388 0.0587,0.172695 0.29374,0.230261 0.35249,0 0.35249,-0.115131 0,-0.230259 -0.23499,-0.518084 -0.23499,-0.287824 -0.41124,-0.402954 z m 5.69857,0.115129 0.3525,-0.287824 -0.3525,-0.287825 -0.29374,0.287825 z m -13.04209,-1.439123 q -0.1175,-0.05756 -0.1175,0.172695 0,0.172694 0.1175,0.172694 0.35249,-0.230259 0,-0.345389 z m 6.16856,-0.34539 q -0.1175,0 -0.1175,0.230261 0,0.172693 0.1175,0.115129 0.17625,-0.05756 0.17625,-0.172695 0,-0.115129 -0.17625,-0.172695 z m 1.17496,-0.230259 q 0,0.690779 0.64623,0.690779 0,-0.172695 -0.0587,-0.518084 0,-0.34539 -0.29375,-0.402954 -0.29374,0 -0.29374,0.230259 z m 7.40227,0.230259 h 0.29374 v -1.323992 h -0.29374 z m -23.32302,-2.187466 h 0.29373 v -0.23026 z m 12.80709,-0.863474 q -0.29373,0 -0.29373,0.345389 0,0.287825 0.29373,0.287825 0.235,0 0.235,-0.287825 0,-0.345389 -0.235,-0.345389 z m 5.40484,-0.23026 q -0.23499,0.115131 -0.29374,0.287825 -0.0587,0.172695 -0.0587,0.345389 0.41123,0 0.64622,-0.402954 z m 3.99488,-1.093733 q -0.17625,0 -0.17625,0.287824 0,0.287825 0.17625,0.287825 0.29374,0 0.29374,-0.287825 0,-0.287824 -0.29374,-0.287824 z m -11.98463,0.748344 q 0,0.05756 0.11749,0.345389 0.17625,0.287825 0.35249,0.46052 0.17625,0.172694 0.235,0.115129 0.0587,-0.05756 -0.11751,-0.748343 -0.0587,-0.115131 -0.35248,-0.172695 -0.23499,-0.11513 -0.23499,0 z m 6.28606,-1.439123 q 0,0.287825 0.0587,0.518084 0.0587,0.172695 0.46999,0.172695 0.46998,0 0.58747,-0.690779 0.1175,-0.690779 0.1175,-0.921039 0,-0.11513 -0.0587,-0.460519 -0.0587,-0.34539 -0.3525,-0.460519 -0.41123,0.287824 -0.64623,0.805908 -0.17623,0.46052 -0.17623,1.036169 z"
         id="path9" />
    </g>
    <text
       xml:space="preserve"
       style="font-style:normal;font-variant:normal;font-weight:normal;font-stretch:normal;font-size:50.8px;font-family:Chalkduster;-inkscape-font-specification:'Chalkduster, Normal';font-variant-ligatures:normal;font-variant-caps:normal;font-variant-numeric:normal;font-variant-east-asian:normal;text-align:start;writing-mode:lr-tb;direction:ltr;text-anchor:start;fill:#3737ff;fill-opacity:0.935961;stroke-width:0.206375"
       x="297"
       y="120.9782"
       id="text8"><tspan
         sodipodi:role="line"
         id="tspan8"
         style="stroke-width:0.206375"></tspan></text>
  </g>
  <metadata
     id="metadata1">
    <rdf:RDF>
      <cc:Work
         rdf:about="">
        <dc:title>Shannon Heylmun</dc:title>
        <dc:creator>
          <cc:Agent>
            <dc:title>Shannon Heylmun</dc:title>
          </cc:Agent>
        </dc:creator>
        <dc:date>February 28, 2026</dc:date>
      </cc:Work>
    </rdf:RDF>
  </metadata>
</svg>
