<?xml version="1.0" encoding="UTF-8" standalone="no"?>
<!-- Created with Inkscape (http://www.inkscape.org/) -->

<svg
   width="256mm"
   height="256mm"
   viewBox="0 0 256 256"
   version="1.1"
   id="svg1"
   inkscape:version="1.4 (e7c3feb1, 2024-10-09)"
   sodipodi:docname="favicon.svg"
   inkscape:export-filename="favicon.png"
   inkscape:export-xdpi="96"
   inkscape:export-ydpi="96"
   xmlns:inkscape="http://www.inkscape.org/namespaces/inkscape"
   xmlns:sodipodi="http://sodipodi.sourceforge.net/DTD/sodipodi-0.dtd"
   xmlns:xlink="http://www.w3.org/1999/xlink"
   xmlns="http://www.w3.org/2000/svg"
   xmlns:svg="http://www.w3.org/2000/svg"
   xmlns:rdf="http://www.w3.org/1999/02/22-rdf-syntax-ns#"
   xmlns:cc="http://creativecommons.org/ns#"
   xmlns:dc="http://purl.org/dc/elements/1.1/">
  <title
     id="title1">Shannon Heylmun</title>
  <sodipodi:namedview
     id="namedview1"
     pagecolor="#ffffff"
     bordercolor="#000000"
     borderopacity="0.25"
     inkscape:showpageshadow="2"
     inkscape:pageopacity="0.0"
     inkscape:pagecheckerboard="0"
     inkscape:deskcolor="#d1d1d1"
     inkscape:document-units="mm"
     inkscape:zoom="0.90509668"
     inkscape:cx="254.66893"
     inkscape:cy="496.63203"
     inkscape:window-width="2032"
     inkscape:window-height="1186"
     inkscape:window-x="0"
     inkscape:window-y="30"
     inkscape:window-maximized="0"
     inkscape:current-layer="layer1"
     inkscape:export-bgcolor="#00000000" />
  <defs
     id="defs1">
    <linearGradient
       id="linearGradient5"
       inkscape:collect="always">
      <stop
         style="stop-color:#ff9800;stop-opacity:1;"
         offset="0"
         id="stop5" />
      <stop
         style="stop-color:#2196f3;stop-opacity:1;"
         offset="1"
         id="stop6" />
    </linearGradient>
    <rect
       x="254.76413"
       y="230.28897"
       width="287.02684"
       height="348.21473"
       id="rect4" />
    <rect
       x="178.00114"
       y="162.42604"
       width="684.19188"
       height="619.66647"
       id="rect3" />
    <rect
       x="321.51456"
       y="331.52712"
       width="18.912621"
       height="30.037692"
       id="rect2" />
    <rect
       x="164.65105"
       y="204.70131"
       width="630.79154"
       height="612.99142"
       id="rect1" />
    <linearGradient
       inkscape:collect="always"
       xlink:href="#linearGradient5"
       id="linearGradient6"
       x1="127.99994"
       y1="0"
       x2="127.99994"
       y2="255.99988"
       gradientUnits="userSpaceOnUse" />
  </defs>
  <path
     id="rect5"
     style="fill:url(#linearGradient6);fill-opacity:1;stroke-width:0.206375"
     d="M 0 0 L 0 255.99988 L 255.99988 255.99988 L 255.99988 0 L 0 0 z M 46.521191 16.420703 L 56.562439 16.420703 C 57.327492 16.420703 57.90125 16.822708 58.283781 17.625798 C 58.857573 18.428887 59.240249 19.332362 59.431514 20.336226 C 59.62277 21.340085 59.718319 22.343548 59.718319 23.347412 C 59.909579 24.351271 60.005123 25.154765 60.005123 25.757084 L 64.021415 25.757084 L 66.603687 19.131132 L 74.06318 23.046655 C 74.828242 21.038938 76.071302 20.034953 77.792668 20.034953 C 79.322743 20.034953 80.087618 20.636933 80.087618 21.841561 C 80.087618 23.0462 80.565803 23.849688 81.522156 24.251233 C 81.713249 24.652772 82.095969 24.552273 82.669889 23.949959 C 82.860983 23.749184 83.05206 23.648686 83.243498 23.648686 L 83.243498 18.529102 C 83.434591 18.729877 83.721748 18.830375 84.104427 18.830375 C 84.29552 18.830375 84.486597 18.930357 84.678035 19.131132 L 85.252161 19.131132 C 86.208513 19.532677 86.686182 20.33617 86.686182 21.540804 C 86.686182 22.544663 86.399541 23.347645 85.825769 23.949959 C 85.443238 24.552273 85.252161 25.355256 85.252161 26.359115 L 85.252161 26.961662 L 86.399377 28.166239 L 86.973503 28.166239 C 88.503628 28.166239 89.268453 27.162254 89.268453 25.154537 C 89.459546 23.146814 89.555257 21.841845 89.555257 21.23953 C 90.894092 21.23953 92.328278 21.942009 93.858354 23.347412 C 95.57972 24.552046 96.823296 25.757028 97.588359 26.961662 C 97.779452 26.760887 98.161655 26.359398 98.735575 25.757084 C 99.500638 24.953995 100.26598 24.251 101.03104 23.648686 C 101.79606 23.046366 102.46537 22.544379 103.03919 22.142834 C 103.80425 21.54052 104.28249 21.23953 104.47373 21.23953 C 106.00385 21.23953 107.15135 21.942009 107.91641 23.347412 C 108.68147 24.552046 109.15971 26.058018 109.35095 27.864966 C 109.73343 29.471139 109.92456 31.077093 109.92456 32.683276 C 109.92456 34.289444 110.02027 35.393933 110.21136 35.996252 C 110.40245 36.397792 110.9762 37.10027 111.9327 38.104134 C 113.0803 38.907223 113.74956 39.509714 113.94085 39.911259 L 113.94085 40.513806 C 113.94085 40.714576 114.03656 40.915067 114.22765 41.115837 C 114.22765 41.316612 114.13194 41.617596 113.94085 42.019141 L 113.94085 42.621688 C 113.94085 43.023238 113.74982 43.926719 113.36724 45.332117 C 113.17615 46.737525 112.98455 47.641001 112.79312 48.042546 L 112.21951 48.042546 C 111.26325 48.042546 110.59389 47.841538 110.21136 47.439998 C 110.02027 46.837679 109.73311 46.23571 109.35043 45.63339 C 109.15934 45.031076 108.6811 44.529078 107.91589 44.127539 C 107.15078 43.525225 105.71664 43.224235 103.6128 43.224235 C 103.4217 43.62578 103.23011 43.926769 103.03867 44.127539 C 102.65614 44.729853 102.56095 45.131347 102.75238 45.332117 C 102.94348 45.532892 103.51728 45.733894 104.47373 45.934664 C 105.62137 46.135439 106.29063 46.335919 106.48187 46.536694 C 107.24689 46.938239 107.72512 47.54073 107.91641 48.343819 C 108.1075 48.946133 108.29858 49.648617 108.49002 50.451701 C 108.68111 51.05402 108.96827 51.656512 109.35095 52.258826 C 109.73343 52.66037 110.49826 52.860856 111.6459 52.860856 C 111.6459 53.663945 111.26323 54.366935 110.49816 54.969255 C 109.7331 55.571574 108.7772 56.173554 107.62961 56.775863 C 106.6733 57.378182 105.8124 58.081172 105.04733 58.884261 C 104.28227 59.486581 103.8996 60.390056 103.8996 61.59469 C 103.8996 63.200863 104.37784 64.304835 105.33414 64.907149 C 106.29044 65.509469 106.76868 66.613947 106.76868 68.220125 C 106.57758 68.621675 106.48187 68.922654 106.48187 69.123429 L 106.48187 70.328007 C 106.29078 69.725687 105.71698 69.123719 104.76053 68.521399 C 103.99547 67.71831 103.0391 66.915333 101.89146 66.112244 C 100.93515 65.309154 99.883686 64.706663 98.736092 64.305119 C 97.779789 63.702799 97.014446 63.401815 96.440625 63.401815 C 95.675563 63.401815 95.101765 63.702799 94.719283 64.305119 C 94.52819 64.706663 94.050005 64.907149 93.284745 64.907149 L 92.711137 64.907149 C 92.328606 64.70638 91.754857 64.304886 90.989795 63.702572 C 90.416023 62.899482 89.650582 62.096506 88.694328 61.293416 C 87.929265 60.289552 87.164391 59.486581 86.399377 58.884261 C 85.825556 58.081172 85.442885 57.478681 85.251644 57.077136 C 84.677822 56.474822 84.295668 55.872842 84.104427 55.270528 C 84.104427 54.467434 84.008716 53.663945 83.817623 52.860856 C 83.817623 52.057767 83.626595 51.455787 83.244014 51.054248 C 83.052921 50.652698 82.479124 50.451701 81.522673 50.451701 C 80.56632 50.451701 78.844509 50.652698 76.35813 51.054248 C 73.871701 51.255018 71.194042 51.556008 68.325028 51.957552 C 65.647334 52.158322 63.065681 52.35933 60.579248 52.560099 C 58.09282 52.760874 56.371024 52.96136 55.414705 53.16213 C 52.737016 53.362905 50.729111 53.864897 49.390267 54.667981 C 48.242683 55.270306 47.381788 56.27428 46.807996 57.679683 C 46.234209 58.884317 45.660446 60.389767 45.086654 62.19672 C 44.704127 63.802899 43.939287 65.609861 42.791703 67.617578 C 41.452859 67.216039 40.974639 66.814551 41.357166 66.413 C 41.930957 66.011456 42.217578 65.609967 42.217578 65.208423 C 40.878729 65.208423 39.635679 65.107924 38.48809 64.907149 C 37.531772 64.70638 36.670871 64.70638 35.905819 64.907149 C 35.332022 64.907149 34.853807 65.409142 34.471281 66.413 C 34.280025 67.21609 34.184477 68.722062 34.184477 70.930554 C 34.184477 73.139047 35.045367 74.24353 36.766748 74.24353 C 38.105588 74.24353 38.774894 73.540541 38.774894 72.135132 C 38.966155 70.528959 39.635452 69.725977 40.78304 69.725977 C 40.78304 70.93061 40.879106 72.637068 41.070361 74.845561 C 41.452893 76.853278 41.93059 78.861243 42.504382 80.868966 C 43.269435 82.876689 44.225874 84.683645 45.373458 86.289823 C 46.521042 87.695227 47.860152 88.397705 49.390267 88.397705 L 49.103463 88.397705 C 48.720941 88.59848 48.433804 88.799483 48.242533 89.000252 C 48.051278 89.201027 47.955729 89.401513 47.955729 89.602283 C 47.955729 89.803052 47.860186 89.903556 47.668925 89.903556 L 47.668925 91.108134 C 47.668925 92.312773 48.242683 93.115745 49.390267 93.517289 C 50.729111 93.918828 51.972176 94.420832 53.119755 95.02314 C 54.458605 95.424685 55.510577 96.127669 56.275635 97.131539 C 57.231953 98.135398 57.327501 99.640853 56.562439 101.64858 C 56.94497 100.84549 57.805866 100.444 59.14471 100.444 C 60.67482 100.444 61.631259 101.04649 62.013786 102.25112 C 62.587578 103.25498 62.969742 104.35894 63.161003 105.56358 C 63.543534 106.76821 64.021758 107.97319 64.59554 109.17783 C 65.169337 110.18169 66.22131 110.68368 67.75142 110.68368 L 68.899154 110.68368 C 67.94283 109.67982 67.369072 108.57534 67.177812 107.37071 L 67.177812 104.05773 C 67.177812 103.05387 66.890674 102.15039 66.316882 101.3473 C 65.74309 100.34344 64.595569 99.540467 62.874198 98.938147 C 63.256725 98.737377 63.639406 98.636873 64.021932 98.636873 L 65.169149 98.636873 C 66.699259 98.636873 68.133917 99.138866 69.472762 100.14272 C 70.811631 101.14659 72.150697 102.25107 73.489571 103.4557 C 74.828455 104.66033 76.071515 105.86481 77.219059 107.06943 C 78.557894 108.27407 79.992498 109.07704 81.522673 109.47859 C 82.670217 109.88013 84.199966 110.38213 86.112573 110.98444 C 88.025229 111.58675 88.981649 111.98824 88.981649 112.18902 L 95.293408 125.13913 C 95.293408 124.73758 95.389119 124.13509 95.580212 123.33201 C 95.962744 122.32814 96.249384 121.62566 96.440625 121.22413 L 96.727429 120.92285 L 97.014233 120.92285 L 97.300521 120.92285 L 97.587325 121.22413 C 99.30874 124.03493 100.64788 127.14686 101.60413 130.55999 L 103.89908 129.05414 C 103.13402 131.06186 102.94299 133.27031 103.32548 135.67957 C 103.70801 137.88807 104.37727 139.99602 105.33362 142.00374 C 106.48117 144.01146 107.91592 145.81841 109.63724 147.42459 C 111.35865 148.83 113.17541 149.73348 115.08807 150.13502 C 116.42695 151.94197 117.67001 153.94993 118.81755 156.15843 C 119.96515 158.16614 120.5389 160.2741 120.5389 162.48259 C 120.5389 163.68722 119.58299 165.39368 117.67034 167.60217 C 115.94897 169.6099 114.32319 170.31289 112.79312 169.71057 C 114.32319 171.91906 115.08807 174.529 115.08807 177.54058 C 115.08807 178.74522 114.80091 180.65268 114.22714 183.26272 C 113.8446 185.67198 112.69706 186.87645 110.78445 186.87645 L 110.21084 186.87645 C 110.01975 186.67568 109.63713 186.47467 109.06311 186.2739 C 108.48934 186.07313 108.0111 185.77214 107.62857 185.3706 L 107.62857 186.2739 L 107.62857 186.87645 C 107.81967 187.67954 108.10682 188.88401 108.4895 190.49018 C 108.87203 192.09637 109.06311 193.10034 109.06311 193.50188 L 110.21084 194.70646 C 109.82826 195.10801 109.35008 195.81099 108.77631 196.81486 C 108.20253 197.61795 107.81986 198.21993 107.62857 198.62147 C 106.67227 200.62919 105.90739 201.83418 105.33362 202.23572 C 104.7598 202.63727 103.8989 203.64073 102.75135 205.2469 C 103.32512 206.25076 104.18603 206.75275 105.33362 206.75275 L 105.33362 210.66776 C 103.61226 210.66776 102.08209 209.96528 100.7432 208.55988 C 99.595611 206.9537 98.352551 206.15072 97.013717 206.15072 L 96.439591 206.45148 L 93.857837 220.90745 C 93.857837 221.30899 93.475117 221.71048 92.710103 222.11202 L 92.136495 222.11202 C 91.371482 222.11202 90.797635 221.81103 90.415153 221.20872 C 90.22406 220.60641 90.032466 220.00391 89.841028 219.4016 C 89.841028 218.79928 89.745834 218.19679 89.55474 217.59447 C 89.363647 216.99216 88.885364 216.69117 88.120203 216.69117 C 86.398787 216.69117 85.346854 217.39364 84.964323 218.79905 C 84.581792 220.40523 84.294684 222.0117 84.103394 223.61788 L 82.669373 223.61788 C 81.139248 223.61788 79.89572 222.71439 78.939368 220.90745 C 77.983064 219.30126 77.21819 217.9963 76.644417 216.99244 C 75.688065 217.19321 75.20988 217.5947 75.20988 218.19702 L 75.20988 220.3049 C 75.20988 221.30876 75.400957 221.91125 75.783488 222.11202 C 76.35726 222.51357 76.644417 223.21604 76.644417 224.21991 C 76.644417 225.22376 76.548706 226.22775 76.357613 227.23161 C 76.16652 228.43624 75.401694 229.03873 74.062663 229.03873 C 73.87157 229.03873 73.679976 228.93823 73.488538 228.73746 L 72.628125 228.73746 C 73.010661 228.33592 73.010661 227.43244 72.628125 226.02703 C 72.245569 224.8224 71.862918 224.01942 71.480391 223.61788 L 70.619979 223.61788 L 70.045854 223.61788 C 69.85476 223.61788 69.759049 223.51738 69.759049 223.3166 L 66.60317 223.3166 C 65.646852 223.51738 65.169149 224.21985 65.169149 225.42448 L 65.169149 226.02703 C 65.360405 226.22781 65.742564 226.4288 66.316366 226.62958 C 67.081418 227.03112 67.559638 227.33211 67.750903 227.53288 L 68.037708 227.83416 C 68.037708 228.03492 68.133773 228.13491 68.325028 228.13491 C 66.412387 228.13491 65.264354 228.33592 64.881828 228.73746 C 64.499301 229.139 64.403758 229.641 64.595024 230.24331 C 64.786284 230.84562 64.881828 231.5481 64.881828 232.35119 C 65.073084 233.35505 64.786463 234.35904 64.021415 235.36289 C 63.830155 235.56366 63.064802 235.76467 61.725948 235.96544 C 60.387099 236.16621 59.526715 236.3667 59.144194 236.56747 C 58.761667 236.56747 58.47453 236.96896 58.283264 237.77205 C 58.092003 238.57514 57.900926 239.07713 57.709656 239.2779 C 57.709656 239.47867 57.614107 239.57917 57.422852 239.57917 L 56.561922 239.57917 C 55.031812 239.57917 53.979834 238.97668 53.406042 237.77205 C 52.832251 236.76819 51.589196 236.2662 49.676554 236.2662 L 47.955212 236.2662 C 47.190155 236.46697 46.711935 236.56747 46.520675 236.56747 C 46.329419 236.56747 45.946743 236.96896 45.372941 237.77205 C 44.799149 238.77591 44.320935 239.2779 43.938403 239.2779 C 43.555877 239.2779 42.886575 238.77591 41.930257 237.77205 C 41.165205 236.96896 40.591442 236.56747 40.208915 236.56747 C 39.826389 236.3667 39.061554 236.06571 37.913965 235.66417 C 36.957652 235.46339 35.905669 235.0619 34.758085 234.45959 C 33.610501 234.05805 32.462985 233.65656 31.315401 233.25501 C 30.35929 233.05428 29.594203 232.8532 29.020451 232.65247 C 28.255393 230.84552 27.872717 228.93806 27.872717 226.93033 C 27.872717 225.32416 28.350932 224.22019 29.307255 223.61788 C 30.263573 223.21633 30.741793 222.31285 30.741793 220.90745 C 30.741793 219.50204 30.454655 218.39756 29.880863 217.59447 C 29.307072 216.59062 28.637775 215.48665 27.872717 214.28201 L 28.159521 214.28201 L 28.446326 214.28201 C 28.446326 214.08124 28.542391 213.98074 28.733647 213.98074 L 29.594059 213.98074 C 31.124169 213.98074 31.889526 214.48273 31.889526 215.48659 C 31.889526 216.49045 32.367224 216.99244 33.323547 216.99244 L 34.184477 216.99244 C 33.993216 214.18163 34.184303 211.67168 34.758085 209.46318 C 35.523138 207.2547 36.2885 205.14674 37.053552 203.13902 C 38.009875 200.93053 38.870249 198.72208 39.635307 196.51359 C 40.400359 194.30509 40.78304 191.79514 40.78304 188.98433 C 41.548093 188.98433 42.026308 189.28583 42.217578 189.88815 C 42.408834 190.49046 42.982597 190.79146 43.93892 190.79146 C 46.616614 190.79146 49.389871 190.38996 52.258826 189.58688 C 55.127785 188.78379 57.805504 187.88031 60.291927 186.87645 L 62.586877 195.91104 C 62.969404 195.71026 63.35208 195.20828 63.734611 194.40519 C 64.117142 193.6021 64.40428 192.69862 64.59554 191.69476 C 64.978072 190.69089 65.169149 189.78741 65.169149 188.98433 C 65.360405 187.98047 65.360405 187.27799 65.169149 186.87645 C 67.081785 185.27027 68.80303 183.9653 70.333175 182.96144 C 71.863305 181.75681 73.680624 181.15432 75.784521 181.15432 C 75.975615 181.15432 76.262206 181.25482 76.644934 181.45559 L 77.792668 181.45559 L 75.210396 184.16602 C 75.592928 185.16988 75.975549 186.37434 76.35813 187.77975 C 76.740612 188.98438 77.123332 189.58688 77.505863 189.58688 C 78.844698 189.58688 79.896681 189.08488 80.661743 188.08103 C 81.426806 186.87639 82.096117 185.57143 82.669889 184.16602 C 83.243662 182.76062 83.81741 181.35515 84.391231 179.94974 C 84.965004 178.34357 85.634315 177.1391 86.399377 176.33601 C 87.164391 175.53292 88.025296 175.03093 88.981649 174.83016 C 89.937952 174.42861 90.798341 174.12763 91.563403 173.92685 C 92.328466 173.52531 92.998294 173.1233 93.572066 172.72176 C 94.145838 172.11944 94.432479 171.21596 94.432479 170.01133 C 94.432479 168.40515 93.667653 167.10018 92.137528 166.09632 C 90.798694 164.89169 89.36404 164.28971 87.833915 164.28971 C 86.877612 164.28971 86.2083 164.5907 85.825769 165.19302 C 85.634676 165.59456 85.252005 165.79556 84.678035 165.79556 L 84.104427 165.79556 C 83.721896 163.18552 83.339176 160.57507 82.956694 157.96503 C 82.574162 155.15422 82.095928 152.54429 81.522156 150.13502 L 80.948547 150.13502 L 80.374939 150.13502 C 79.992408 150.13502 79.514173 150.33602 78.940401 150.73757 C 78.366629 150.93834 77.983909 151.13883 77.792668 151.3396 L 77.219059 151.3396 L 76.644934 151.3396 C 76.644934 150.73728 76.453857 149.43231 76.071326 147.42459 C 75.880232 145.2161 75.593125 143.91113 75.210396 143.50959 C 74.254093 141.10032 72.72397 140.19684 70.619979 140.79916 C 68.707313 141.40148 66.89052 141.70246 65.169149 141.70246 L 65.169149 143.81086 C 62.682715 143.81086 60.29214 142.70638 57.996977 140.49788 C 55.701814 138.08863 54.362699 135.57919 53.980168 132.96914 C 53.788912 133.16992 53.406231 133.4709 52.832434 133.87245 C 52.258642 134.27399 51.780939 134.475 51.398413 134.475 L 50.824288 133.87245 C 50.441767 133.47091 50.25068 133.16993 50.25068 132.96914 C 49.294356 131.36297 48.720598 129.95749 48.529338 128.75286 C 48.529338 127.54823 48.72042 125.94227 49.102946 123.93455 C 47.955362 124.73764 46.903389 125.44013 45.947066 126.04244 C 45.182014 126.44399 44.130031 126.64498 42.791187 126.64498 C 40.687289 126.64498 39.826911 125.5405 40.209432 123.33201 C 40.591963 121.12351 40.78304 119.31656 40.78304 117.91115 C 40.209248 117.91115 39.157271 117.71066 37.627161 117.30912 C 36.09705 116.90758 35.33221 117.81106 35.33221 120.01955 C 35.33221 120.42109 35.71437 121.12357 36.479427 122.12743 C 37.435745 122.93052 37.913965 123.53301 37.913965 123.93455 C 37.913965 124.13532 37.531806 124.7373 36.766748 125.74116 C 36.192956 126.74503 35.714742 127.44801 35.33221 127.84956 L 34.758085 127.84956 L 34.184477 127.84956 C 33.80195 127.44801 33.514813 126.74503 33.323547 125.74116 C 33.132287 124.7373 32.94121 124.13532 32.749939 123.93455 C 32.558683 123.73378 31.98492 123.53278 31.028597 123.33201 C 30.072279 123.13123 29.402982 122.93075 29.020451 122.72998 C 26.534022 121.1238 24.716688 119.11583 23.569104 116.70657 C 22.42152 114.2973 21.656685 111.88785 21.274154 109.47859 C 21.082898 107.06932 20.987349 105.06188 20.987349 103.4557 C 21.178605 101.64875 21.178605 100.74527 20.987349 100.74527 L 17.257861 101.3473 L 16.683736 101.64858 C 16.49248 101.84935 16.20586 102.35134 15.823324 103.15443 C 15.632068 103.75675 15.440469 104.15824 15.249198 104.359 C 15.249198 104.55978 15.15365 104.66028 14.962394 104.66028 C 14.771138 104.86105 14.580056 104.96155 14.388786 104.96155 C 14.388786 102.35151 14.006105 100.44406 13.241052 99.239421 C 12.475995 97.834023 11.519556 96.629557 10.371977 95.625688 C 9.2243929 94.421065 8.0768717 93.31657 6.9292928 92.312712 C 5.7817139 91.108078 4.8252699 89.401625 4.0602173 87.193127 C 4.0602173 86.791583 3.9646738 85.587117 3.7734131 83.579395 L 3.7734131 79.965145 C 3.7734131 74.142757 4.7298521 69.324367 6.6424886 65.509696 C 8.5551251 61.695026 10.563547 58.181611 12.667444 54.969255 C 14.962612 51.756898 17.066572 48.745471 18.979203 45.934664 C 20.89184 42.923082 21.847762 39.409151 21.847762 35.393705 L 31.028597 35.393705 C 31.028597 34.791391 30.933049 34.088913 30.741793 33.285824 C 30.550532 32.482734 30.454989 31.679757 30.454989 30.876668 C 30.454989 30.073585 30.646071 29.370584 31.028597 28.76827 C 31.411123 28.16595 32.17648 27.864966 33.324064 27.864966 C 34.471648 27.864966 35.523109 28.968933 36.479427 31.177425 C 37.627011 33.185148 39.348807 34.189128 41.64397 34.189128 L 41.64397 37.20083 C 42.409022 37.20083 42.887237 37.301334 43.078507 37.502104 C 43.269763 37.502104 43.556389 37.000117 43.93892 35.996252 L 43.93892 23.046655 C 43.93892 22.645111 44.129997 22.143113 44.512528 21.540804 C 44.895055 20.938484 45.182197 20.537001 45.373458 20.336226 C 47.094829 20.336226 48.337893 20.837702 49.102946 21.841561 C 50.059269 22.845425 50.728561 24.050402 51.111092 25.455811 C 51.684884 26.660439 52.067565 28.065918 52.258826 29.672091 C 52.641352 31.077499 53.215115 32.382469 53.980168 33.587097 C 55.127756 33.386328 55.70151 32.482847 55.70151 30.876668 L 55.70151 28.166239 C 55.70151 24.753113 54.936674 22.745154 53.406559 22.142834 C 52.067715 21.339745 49.772672 19.83429 46.521191 17.625798 L 46.521191 16.420703 z M 225.27979 16.420703 L 225.27979 19.237585 L 225.27979 23.306588 C 225.47251 24.767183 225.6655 26.227632 225.85857 27.688232 C 226.24435 29.148828 226.72681 30.192308 227.30551 30.818274 C 227.49822 31.026911 227.98022 30.922394 228.75193 30.505115 C 229.13771 30.296478 229.42718 30.087988 229.62009 29.879313 L 229.62009 24.558708 L 232.80284 24.558708 C 232.80284 25.184679 232.89895 26.123648 233.09172 27.37559 C 233.28443 28.627526 233.3811 29.983475 233.3811 31.444076 C 233.57387 32.904676 233.7663 34.365125 233.95936 35.82572 C 234.15208 37.077657 234.24875 38.016632 234.24875 38.642603 C 234.24875 38.85124 234.44175 39.373241 234.82753 40.207882 C 235.40617 40.833853 235.7916 41.355332 235.98456 41.772644 L 236.56334 41.772644 C 237.9136 41.772644 238.78153 40.729169 239.16731 38.642603 C 239.5531 36.347378 239.74609 34.573939 239.74609 33.321997 L 239.74609 30.818274 C 239.74609 30.400962 239.5531 29.566487 239.16731 28.314551 C 238.9746 26.85395 238.87844 26.018964 238.87844 25.810311 C 238.87844 25.601674 238.9746 25.393184 239.16731 25.184509 L 239.74609 24.558708 C 241.48208 25.393343 242.63953 26.645297 243.21823 28.314551 C 243.98979 29.775146 244.47179 31.340101 244.66465 33.009355 C 245.05048 34.678609 245.33995 36.452047 245.53282 38.32996 C 245.72554 39.999209 246.30452 41.564163 247.26914 43.024764 C 247.46191 43.024764 248.13685 43.754733 249.29434 45.215328 C 250.6446 46.46727 251.31954 47.19775 251.31954 47.406409 C 251.31954 47.615046 251.12655 48.762516 250.74077 50.849093 C 250.54805 52.727005 250.25905 54.91794 249.87312 57.421818 C 249.6804 59.717043 249.39089 62.012478 249.00496 64.307703 C 248.61917 66.394269 248.42618 67.854723 248.42618 68.689347 L 248.42618 71.819389 L 248.42618 76.826835 L 248.42618 81.521639 L 248.42618 84.338521 C 248.42618 86.007775 248.04071 87.155751 247.26914 87.781722 C 246.49758 88.407693 245.62913 89.033673 244.66465 89.659644 C 243.89309 90.076961 243.12163 90.59844 242.35007 91.224406 C 241.5785 91.850377 241.19303 92.997831 241.19303 94.66709 L 241.19303 97.483972 C 241.57881 98.944567 242.06076 99.675053 242.63945 99.675053 L 247.26914 96.231852 L 247.26914 98.422933 L 247.26914 100.92666 C 246.88336 101.34397 246.49742 102.17895 246.11159 103.4309 C 245.72581 104.47418 245.53282 105.10016 245.53282 105.30882 C 245.53282 105.72613 245.91876 106.03912 246.69037 106.24778 C 247.6548 106.45642 248.23326 106.6649 248.42618 106.87358 L 248.71557 108.1257 C 249.10135 108.75167 249.48677 109.58614 249.8726 110.62942 C 250.25839 111.67271 250.5479 112.71618 250.74077 113.75946 C 251.12655 114.80275 251.31954 115.63722 251.31954 116.26319 L 251.31954 117.20215 L 251.31954 117.51479 C 251.31954 117.93211 251.12655 118.76709 250.74077 120.01903 C 250.35499 121.27097 250.16199 122.00094 250.16199 122.20959 L 250.16199 143.80569 C 248.81178 146.10092 247.26886 147.66587 245.53282 148.5005 C 243.79677 149.33513 242.34986 150.58708 241.19251 152.25634 L 241.19251 162.27175 C 243.31434 167.69682 244.76125 172.91316 245.53282 177.92092 C 246.4973 182.92868 246.01483 188.77153 244.08588 195.44854 L 245.53282 197.0133 L 248.42618 210.47139 C 248.6189 210.26275 249.10084 210.05426 249.8726 209.84559 C 250.64417 209.42828 251.12668 209.21979 251.31954 209.21979 L 251.89832 209.84559 C 251.89832 210.05423 252.09131 210.15875 252.4771 210.15875 C 252.66981 210.15875 252.76597 210.26275 252.76597 210.47139 C 252.76597 213.39259 251.99451 216.105 250.45138 218.60888 C 249.10112 220.9041 248.42566 223.51253 248.42566 226.43372 C 248.42566 227.68566 248.71518 228.62464 249.29383 229.25061 C 250.06544 230.08523 250.45138 231.02421 250.45138 232.06749 C 250.45138 232.27613 250.35476 232.38065 250.16199 232.38065 L 250.16199 233.00645 L 250.16199 233.63225 C 249.77626 233.21493 249.0048 232.58895 247.8474 231.75433 C 246.69006 231.12836 245.9186 230.71139 245.53282 230.50273 L 244.95404 230.18957 C 243.98956 230.18957 242.92859 231.12854 241.77129 233.00645 C 240.80681 234.88436 240.13187 236.03182 239.74609 236.44913 L 239.74609 229.56377 C 236.8527 229.56377 234.63438 229.77226 233.0912 230.18957 C 231.74094 230.81554 230.58354 231.54602 229.61906 232.38065 C 228.8475 233.42393 227.97956 234.57139 227.01508 235.82333 C 226.05065 237.07527 224.70016 238.32723 222.96417 239.57917 L 218.91325 236.44913 L 218.62542 235.82333 C 218.62542 234.78005 218.91488 233.84108 219.49358 233.00645 C 220.26514 232.38048 220.65113 231.54601 220.65113 230.50273 C 220.65113 225.28632 219.78268 221.73891 218.04664 219.861 C 216.3106 217.98309 213.41728 216.83563 209.36655 216.41831 L 209.36655 212.34931 L 206.1838 213.60143 L 206.1838 212.97563 L 206.1838 212.34931 C 206.56958 211.932 207.43751 210.88904 208.78777 209.21979 C 210.33095 207.55053 211.29587 206.50706 211.68165 206.08975 C 211.87437 206.50706 212.54931 206.82005 213.70685 207.02871 C 214.8642 207.23734 215.63566 207.44583 216.02144 207.65451 L 216.60022 207.65451 C 218.33626 207.65451 219.0112 206.92454 218.62542 205.46394 C 218.43265 204.00335 218.33654 202.75138 218.33654 201.7081 C 218.14383 201.7081 217.75784 202.02109 217.17899 202.64706 C 216.60034 203.06438 216.21436 203.06438 216.02144 202.64706 C 215.82872 202.43842 215.34678 201.70794 214.57502 200.45598 C 213.80345 199.20405 213.03199 197.95208 212.26043 196.70014 C 211.48887 195.23954 210.81336 193.88359 210.23471 192.63165 C 209.65602 191.17106 209.36707 190.12758 209.36707 189.50161 C 209.36707 186.78908 209.75249 184.70264 210.5241 183.24205 C 211.48853 181.78144 213.32092 181.25945 216.02144 181.67677 L 216.02144 181.05096 L 216.02144 180.42516 C 215.82872 179.7992 215.63624 178.86022 215.44318 177.60828 C 215.25046 176.35634 215.05747 175.62586 214.8644 175.4172 L 213.70685 175.4172 C 212.74237 175.4172 211.77792 176.25167 210.81349 177.92092 C 209.84901 179.38152 209.36707 180.63348 209.36707 181.67677 C 208.98128 181.25945 208.30583 180.32048 207.34135 178.85988 C 206.56979 177.19063 206.18431 176.04317 206.18431 175.4172 C 205.99155 173.9566 206.0877 172.91312 206.47319 172.28716 C 207.05183 171.45253 207.63082 170.82655 208.20951 170.40924 C 208.98108 169.99192 209.65602 169.57495 210.23471 169.15763 C 211.00628 168.74032 211.48827 167.90585 211.68114 166.65391 C 209.75218 167.90585 208.4023 168.32282 207.63074 167.90551 C 206.85917 167.4882 206.28019 166.65373 205.89441 165.40179 C 205.70169 163.94119 205.50875 162.27173 205.31563 160.39383 C 205.12291 158.30726 204.64092 156.42932 203.86921 154.76006 C 203.09765 152.88216 201.84372 151.3172 200.10768 150.06526 C 198.37164 148.81332 195.76784 148.18734 192.29576 148.18734 C 191.90997 148.18734 190.75257 148.29186 188.82362 148.5005 C 187.08762 148.5005 185.15876 148.60502 183.03689 148.81366 C 180.91507 149.0223 178.98564 149.23078 177.24965 149.43946 C 175.70652 149.64809 174.74211 149.75262 174.35628 149.75262 L 173.77802 150.37842 C 173.39224 150.79573 173.19925 151.21322 173.19925 151.63054 C 172.81347 151.63054 172.42753 151.42153 172.0417 151.00422 C 171.65596 150.37825 171.17397 149.75226 170.59527 149.1263 C 170.20949 148.50033 169.8235 147.97885 169.43772 147.56154 C 169.05189 146.93556 168.76247 146.62257 168.56956 146.62257 C 168.56956 146.20526 168.28061 146.10074 167.70191 146.30942 C 167.12326 146.30942 166.44776 146.51842 165.67619 146.93573 C 164.90463 147.14437 164.13322 147.45737 163.3616 147.87469 C 162.59004 148.08334 162.10758 148.18734 161.91466 148.18734 C 160.37149 148.18734 159.31061 148.60483 158.73191 149.43946 C 158.34613 150.27409 158.15365 151.31756 158.15365 152.5695 C 158.15365 153.82144 158.24976 155.28189 158.44253 156.95114 C 158.63524 158.41174 158.73191 159.87219 158.73191 161.33279 L 158.73191 163.21071 C 158.73191 163.83668 158.82807 164.35816 159.02078 164.77547 L 159.59956 165.40179 C 159.98539 165.8191 160.17834 166.23608 160.17834 166.65339 C 160.17834 167.07071 159.98539 167.8012 159.59956 168.84447 C 159.21383 169.88776 159.02078 170.61824 159.02078 171.03556 L 159.02078 171.66136 C 159.02078 173.12196 159.69577 174.68691 161.04598 176.35616 C 162.39624 177.81676 163.0717 179.6947 163.0717 181.98993 C 163.0717 183.45052 162.97503 184.80699 162.78231 186.05893 C 162.58954 187.10221 161.72161 188.24968 160.17834 189.50161 C 160.75698 194.92669 161.0465 200.35152 161.0465 205.77659 C 161.0465 211.20167 159.79258 216.418 157.28497 221.42576 C 157.28497 221.6344 156.89898 222.05189 156.12742 222.67788 C 155.35586 223.30385 154.97039 223.82533 154.97039 224.24264 C 154.77762 224.65996 154.681 225.59893 154.681 227.05953 C 154.87372 228.31146 154.97039 229.04195 154.97039 229.25061 C 154.77762 229.66792 154.29516 230.60689 153.52345 232.06749 C 152.94475 233.52809 152.46285 234.36255 152.07702 234.57121 C 152.84859 232.90195 152.65554 231.23301 151.49825 229.56377 C 150.34085 227.89451 148.99051 226.74654 147.44733 226.12056 C 147.64005 226.53788 147.83304 227.37286 148.02611 228.6248 C 148.21887 229.87674 148.21887 231.12871 148.02611 232.38065 C 148.02611 233.63259 147.73659 234.78005 147.15794 235.82333 C 146.57925 237.07527 145.71131 237.80575 144.55397 238.01441 C 143.7824 236.1365 142.52853 234.88453 140.79244 234.25857 C 139.05645 233.84125 137.32053 233.63225 135.58449 233.63225 L 135.00571 233.63225 C 134.61998 233.63225 133.84847 233.94524 132.69113 234.57121 C 131.53373 235.40584 130.76227 236.03182 130.37654 236.44913 C 129.41211 236.03182 128.73665 234.77986 128.35082 232.69329 C 127.96504 230.81538 127.77205 229.66792 127.77205 229.25061 C 127.77205 228.20732 127.67594 226.12089 127.48317 222.99104 L 127.48317 216.41831 L 133.55929 216.41831 L 133.55929 209.53243 C 132.01611 209.53243 130.76224 209.74144 129.79776 210.15875 C 129.0262 210.57606 127.96522 210.78455 126.61501 210.78455 C 126.61501 207.23739 127.19394 203.899 128.35134 200.76914 C 129.50868 197.43063 130.08715 193.98773 130.08715 190.44057 L 125.45798 190.44057 C 126.22954 190.02326 127.00095 188.77129 127.77256 186.68473 C 128.73699 184.3895 129.21899 182.72005 129.21899 181.67677 C 129.21899 181.0508 128.44753 181.15531 126.9044 181.98993 C 125.36122 182.6159 124.30034 182.51137 123.72165 181.67677 C 123.14295 178.1296 122.75748 175.2087 122.56461 172.91348 C 122.37184 170.61825 122.27522 167.90532 122.27522 164.77547 C 122.27522 162.27159 122.46827 160.28966 122.854 158.82906 C 123.4327 157.15982 123.72216 154.96887 123.72216 152.25634 C 123.72216 149.75246 124.10764 147.04005 124.8792 144.11885 C 125.84368 141.19766 126.32614 138.27624 126.32614 135.35505 C 126.32614 132.85116 126.03662 130.45174 125.45798 128.15652 C 124.87933 125.65264 124.30086 123.25321 123.72216 120.95799 C 123.33633 118.66277 123.04692 116.36733 122.854 114.07211 C 122.854 111.56823 123.14347 109.16881 123.72216 106.87358 C 123.72216 106.66494 124.20416 105.51748 125.16859 103.4309 C 126.13307 101.34432 126.712 100.09237 126.90492 99.675053 L 126.90492 95.91921 C 126.90492 92.99802 126.51893 91.224058 125.74736 90.598088 C 124.9758 89.972117 123.23993 89.659127 120.53941 89.659127 C 120.92524 88.615844 121.98612 87.259895 123.72216 85.590641 C 125.45816 83.712729 126.90456 81.834778 128.06195 79.956877 C 129.41221 78.078964 130.08767 76.409514 130.08767 74.948914 C 130.08767 73.488318 128.54428 72.549343 125.45798 72.132031 L 122.27522 70.567269 L 122.27522 69.315149 C 122.27522 66.811265 122.75768 64.829337 123.72216 63.368742 C 124.87951 61.699488 125.45798 59.404053 125.45798 56.482857 C 125.45798 53.561662 125.16846 50.744747 124.58981 48.03221 C 124.01111 45.319673 123.72216 42.607259 123.72216 39.894722 C 123.72216 38.642781 124.30063 37.390821 125.45798 36.138879 C 126.80819 34.678284 128.06216 34.469795 129.2195 35.513078 C 129.2195 33.635171 129.50897 32.070216 130.08767 30.818274 C 130.85923 29.357679 131.63069 27.896708 132.40225 26.436112 C 133.17382 24.975517 133.94528 23.515063 134.71684 22.054468 C 135.48841 20.593867 135.97087 18.924929 136.16378 17.047021 L 138.18898 17.047021 C 139.73211 17.047021 140.88956 17.673001 141.66112 18.924943 C 142.43273 19.968231 143.10767 21.220191 143.68632 22.680786 C 144.26502 23.932722 144.74753 25.184171 145.13326 26.436112 C 145.71196 27.479395 146.48342 28.001392 147.44785 28.001392 C 148.21941 28.001392 148.79783 27.79238 149.18366 27.375073 C 149.56939 26.749102 149.85891 26.123123 150.05182 25.497152 C 150.4376 24.662527 150.72712 24.037064 150.91999 23.619747 C 151.30582 22.993776 151.98071 22.680786 152.94519 22.680786 C 153.71675 22.680786 154.48821 23.410755 155.25977 24.87135 C 156.2243 26.331945 157.0927 28.001401 157.86427 29.879313 C 158.63583 31.757226 159.2143 33.635171 159.60008 35.513078 C 159.98586 37.39099 160.17885 38.746939 160.17885 39.581563 L 160.17885 39.894722 L 159.0213 41.772644 C 157.67104 41.146673 156.61011 40.416188 155.83855 39.581563 C 155.25985 38.746939 154.68144 37.91247 154.10274 37.07784 C 153.52404 36.243211 152.84859 35.408747 152.07702 34.574117 C 151.30546 33.739493 150.24448 33.009007 148.89427 32.383036 C 148.12271 32.383036 147.64076 32.904521 147.44785 33.947799 L 147.44785 35.82572 L 147.44785 38.32996 C 147.64062 39.164584 148.12256 39.686064 148.89427 39.894722 L 148.89427 52.101213 L 151.20937 52.101213 L 151.20937 45.215328 L 152.07702 45.215328 C 152.46285 45.215328 152.75232 45.31985 152.94519 45.528487 L 153.52396 45.528487 C 155.8387 48.032371 157.76751 50.84928 159.31069 53.979134 C 161.04673 57.108983 161.91466 60.551883 161.91466 64.307703 C 161.91466 67.228893 161.3362 69.419833 160.17885 70.880428 C 159.21433 72.341023 158.73191 74.218457 158.73191 76.513676 C 158.73191 79.226213 159.40737 81.208658 160.75763 82.4606 C 162.30081 83.503883 163.07222 85.381833 163.07222 88.094364 C 163.07222 90.389589 162.7827 92.059044 162.20405 93.102327 C 161.62536 93.936952 160.95042 94.562931 160.17885 94.980249 C 159.40729 95.397561 158.73183 95.710556 158.15314 95.91921 C 157.57449 95.91921 157.28549 96.2322 157.28549 96.858171 L 157.28549 97.483972 C 157.28549 98.527255 157.86396 99.257219 159.0213 99.674536 L 159.0213 115.95003 C 159.79286 115.95003 160.27538 116.05455 160.46824 116.26319 C 160.66101 116.47182 161.14295 115.94983 161.91466 114.69791 L 165.3868 121.89695 L 167.70139 115.32423 L 172.0417 122.20959 L 172.0417 114.69791 L 175.51383 114.69791 C 178.98592 114.69791 182.94016 114.80243 187.37668 115.01107 C 192.00611 115.01107 195.38188 115.42856 197.50371 116.26319 C 197.31094 116.6805 196.82843 117.72346 196.05677 119.39271 C 195.47807 120.85331 194.99613 121.79229 194.61034 122.20959 L 194.61034 122.8354 C 194.61034 123.04404 194.70645 123.25304 194.89921 123.46171 L 201.55411 123.46171 L 201.55411 130.9734 C 201.74682 130.9734 201.93982 131.0774 202.13288 131.28604 C 202.51866 131.91201 202.90418 132.01653 203.28992 131.5992 C 203.67575 131.18188 204.35115 130.8689 205.31563 130.66024 C 206.47303 130.24292 207.24444 129.92993 207.63022 129.72128 C 207.43745 129.51264 207.14804 129.30416 206.76206 129.09548 C 206.37632 128.88684 206.1838 128.57385 206.1838 128.15652 L 206.1838 127.5302 C 206.1838 126.06961 206.37632 124.81764 206.76206 123.77436 C 207.34075 122.52242 207.63022 121.16647 207.63022 119.70587 C 207.63022 118.03662 207.14828 116.57565 206.1838 115.32371 C 205.21937 114.07177 204.73686 112.50681 204.73686 110.62891 C 204.73686 109.37696 204.92985 108.33402 205.31563 107.49938 C 205.89433 106.66476 206.47275 105.93427 207.05144 105.3083 C 207.63014 104.47368 208.1126 103.74371 208.49838 103.11774 C 209.07708 102.28311 209.36655 101.34414 209.36655 100.30085 C 209.36655 98.005624 208.78757 96.023179 207.63022 94.353931 C 206.66574 92.684677 206.1838 90.389242 206.1838 87.468046 C 207.53406 87.468046 208.40199 87.885536 208.78777 88.720166 C 209.36647 89.346131 209.84841 90.076623 210.2342 90.911247 C 210.61998 91.745876 211.10244 92.580346 211.68114 93.41497 C 212.25983 94.040941 213.32071 94.353931 214.86389 94.353931 L 214.86389 84.338521 L 209.07716 84.338521 L 209.36603 82.773759 C 209.36603 82.147788 209.4627 81.208813 209.65542 79.956877 C 210.0412 78.704935 210.42662 77.348469 210.81246 75.887874 C 211.3911 74.21862 211.87361 72.758171 212.2594 71.50623 L 213.12756 68.689347 C 214.2849 69.106665 215.53831 68.898175 216.88857 68.063546 C 218.43175 67.228916 219.78214 66.185446 220.93949 64.933504 C 222.28975 63.472909 223.35067 62.012455 224.12224 60.55186 C 224.89385 59.091264 225.27979 57.943289 225.27979 57.108659 C 223.73661 57.108659 222.57921 57.004653 221.80765 56.796016 C 221.22895 56.378704 220.26455 56.795683 218.91429 58.04762 C 219.107 57.630308 219.20316 56.900344 219.20316 55.857056 C 219.20316 54.813778 219.107 54.083287 218.91429 53.665975 C 218.72157 53.457332 218.14259 53.248848 217.17796 53.040173 C 216.40639 52.622856 216.02092 52.309871 216.02092 52.101213 L 215.73153 51.788053 C 215.73153 50.327458 216.214 49.2845 217.17847 48.658529 C 218.33577 48.032558 219.49322 47.510567 220.65061 47.09325 C 222.00088 46.675937 223.15781 46.154458 224.12224 45.528487 C 225.27963 44.693863 225.85857 43.441898 225.85857 41.772644 C 225.85857 39.060107 224.89416 36.973678 222.9652 35.513078 C 222.19364 37.182332 221.42218 38.434297 220.65061 39.268921 C 220.07192 39.894892 219.01099 40.207882 217.46786 40.207882 L 216.02092 39.894722 C 217.56405 37.599498 218.43203 35.095573 218.6249 32.383036 C 219.01073 29.461846 219.20367 26.749432 219.20367 24.245549 C 220.36097 24.245549 221.13243 23.828053 221.51826 22.993429 C 221.90404 22.158799 222.19356 21.32433 222.38643 20.489705 C 222.57914 19.446422 222.86866 18.507453 223.25459 17.672823 C 223.64042 16.838199 224.31531 16.420703 225.27979 16.420703 z M 82.669889 25.757084 C 82.096117 25.757084 81.80896 26.158578 81.80896 26.961662 C 81.80896 27.764756 82.096117 28.166239 82.669889 28.166239 C 83.434952 28.166239 83.817623 27.764756 83.817623 26.961662 C 83.817623 26.158578 83.434952 25.757084 82.669889 25.757084 z M 69.759566 26.660388 C 68.420702 26.660388 67.559816 27.262363 67.177295 28.466996 C 66.794769 29.470855 66.603687 30.47484 66.603687 31.478699 L 66.603687 33.587097 C 67.368734 33.185558 68.325178 32.482563 69.472762 31.478699 C 70.811646 30.47484 71.480908 29.370868 71.480908 28.166239 C 71.480908 27.363145 71.098257 26.961662 70.333175 26.961662 L 69.759566 26.660388 z M 92.711137 29.672091 C 92.137315 29.672091 91.850724 30.073585 91.850724 30.876668 C 91.850724 31.679757 92.137315 32.081246 92.711137 32.081246 C 93.284909 32.081246 93.572066 31.679757 93.572066 30.876668 C 93.572066 30.073585 93.284909 29.672091 92.711137 29.672091 z M 97.588359 38.706681 L 97.588359 41.41711 L 99.309701 41.41711 C 99.309701 40.212476 98.735952 39.308995 97.588359 38.706681 z M 36.479427 39.911259 C 35.523104 40.915118 35.045406 41.818604 35.045406 42.621688 L 36.479427 42.621688 L 36.479427 39.911259 z M 49.999532 41.341663 C 49.78436 41.341663 49.677071 41.567406 49.677071 42.019141 C 49.677071 42.420685 49.868148 42.621688 50.25068 42.621688 C 50.633201 42.420913 50.824288 42.21991 50.824288 42.019141 C 50.824288 41.617596 50.633201 41.41711 50.25068 41.41711 C 50.155044 41.366921 50.071256 41.341663 49.999532 41.341663 z M 42.791187 43.826265 C 42.217395 43.826265 41.930774 44.328258 41.930774 45.332117 C 41.930774 46.135206 42.217395 46.536694 42.791187 46.536694 C 43.364978 46.536694 43.652116 46.135206 43.652116 45.332117 C 43.652116 44.328258 43.364978 43.826265 42.791187 43.826265 z M 41.64397 53.16213 L 41.64397 54.366707 L 43.93892 54.366707 L 43.93892 53.16213 L 41.64397 53.16213 z M 38.774894 58.281714 C 38.774894 60.289437 39.731333 61.293416 41.64397 61.293416 L 41.64397 58.281714 L 38.774894 58.281714 z M 12.954248 59.787565 C 12.189191 59.787565 11.806514 60.189054 11.806514 60.992143 C 11.806514 61.795232 12.189191 62.19672 12.954248 62.19672 C 13.52804 62.19672 13.814661 61.795232 13.814661 60.992143 C 13.814661 60.189054 13.52804 59.787565 12.954248 59.787565 z M 25.290963 76.652686 C 25.864755 77.65655 25.864755 78.560031 25.290963 79.363114 C 24.908431 79.965434 24.238623 80.467421 23.2823 80.868966 C 22.517247 81.27051 21.656863 81.571495 20.700545 81.77227 C 19.935488 81.973039 19.265674 82.073543 18.691882 82.073543 C 18.691882 83.077402 19.074563 83.77988 19.839616 84.181425 C 20.795934 84.3822 21.752373 84.482699 22.708691 84.482699 C 24.238806 84.482699 25.290779 84.281696 25.864571 83.880151 C 26.629624 83.277837 27.012305 82.17387 27.012305 80.567692 C 27.012305 80.166147 26.916239 79.463152 26.724984 78.459294 C 26.724984 77.455429 26.247276 76.853455 25.290963 76.652686 z M 32.749939 78.158537 C 33.132465 80.367024 32.654246 82.173991 31.315401 83.579395 C 29.976557 84.984803 28.350816 85.787775 26.43818 85.98855 L 26.43818 86.891854 C 28.350816 86.891854 29.402799 87.996343 29.594059 90.20483 C 29.97659 92.413328 30.168184 94.019287 30.168184 95.02314 C 32.272082 93.416973 33.419603 91.108013 33.610868 88.096431 C 33.993395 85.08485 34.184477 82.474911 34.184477 80.266418 L 34.184477 79.363114 C 34.184477 78.961575 33.706257 78.560076 32.749939 78.158537 z M 21.560958 89.903556 C 22.13475 90.907415 22.995645 91.409408 24.143229 91.409408 L 24.143229 89.903556 L 21.560958 89.903556 z M 213.12808 102.49194 C 211.77786 103.53522 210.71694 104.99567 209.94532 106.87358 C 209.36668 108.54284 209.07716 110.42078 209.07716 112.50734 C 209.07716 113.55063 209.17378 114.4896 209.36655 115.32423 C 209.55927 115.9502 210.33073 116.26319 211.68114 116.26319 C 213.22426 116.26319 214.18872 115.01123 214.5745 112.50734 C 214.96028 110.00347 215.15328 108.33401 215.15328 107.49938 C 215.15328 107.08207 215.05661 106.24759 214.86389 104.99566 C 214.67112 103.74372 214.09275 102.90925 213.12808 102.49194 z M 29.917037 106.69323 C 29.701865 106.69323 29.594059 106.91897 29.594059 107.37071 C 29.594059 107.97302 29.785653 108.27401 30.168184 108.27401 C 30.550711 108.07324 30.741793 107.77225 30.741793 107.37071 C 30.741793 106.96916 30.550711 106.76816 30.168184 106.76816 C 30.072549 106.71797 29.988761 106.69323 29.917037 106.69323 z M 46.521191 108.27401 C 45.947399 108.27401 45.660262 108.67549 45.660262 109.47859 C 45.660262 110.28168 45.947399 110.68368 46.521191 110.68368 C 47.094983 110.68368 47.381604 110.28168 47.381604 109.47859 C 47.381604 108.67549 47.094983 108.27401 46.521191 108.27401 z M 71.480908 108.27401 C 70.907082 108.27401 70.619979 108.67549 70.619979 109.47859 C 70.619979 110.28168 70.907082 110.68368 71.480908 110.68368 C 72.05469 110.68368 72.341838 110.28168 72.341838 109.47859 C 72.341838 108.67549 72.05469 108.27401 71.480908 108.27401 z M 30.168184 110.68368 C 29.594392 110.68368 29.307255 111.18516 29.307255 112.18902 C 29.307255 112.9921 29.594392 113.3936 30.168184 113.3936 C 30.933237 113.3936 31.315401 112.9921 31.315401 112.18902 C 31.315401 111.18516 30.933237 110.68368 30.168184 110.68368 z M 39.061698 110.68368 L 37.913965 112.18902 L 39.061698 112.18902 L 39.061698 110.68368 z M 72.628642 110.68368 L 72.628642 112.18902 L 74.06318 112.18902 L 72.628642 110.68368 z M 82.096281 113.09284 C 81.522509 113.09284 81.044274 113.49433 80.661743 114.29742 C 80.47065 115.10051 80.279056 116.00399 80.087618 117.00785 C 79.896525 118.0117 79.801331 119.01569 79.801331 120.01955 L 79.801331 121.52488 C 80.948974 121.52488 82.000907 121.12339 82.95721 120.3203 C 83.913514 119.51722 84.391748 118.51375 84.391748 117.30912 C 84.391748 116.7068 84.200154 115.90331 83.817623 114.89945 C 83.62653 113.69481 83.052781 113.09284 82.096281 113.09284 z M 48.529338 115.80327 C 47.955546 115.80327 47.286249 115.90377 46.521191 116.10454 C 45.756134 116.30532 45.373458 116.70681 45.373458 117.30912 C 45.373458 117.71066 45.469006 118.41314 45.660262 119.417 C 46.042788 120.22009 46.329926 120.82258 46.521191 121.22413 C 47.47751 120.82258 48.051273 119.91911 48.242533 118.5137 C 48.433794 117.1083 48.529338 116.20481 48.529338 115.80327 z M 87.582768 115.95365 C 87.36764 115.95365 87.260307 116.40565 87.260307 117.30912 C 87.260307 118.51375 87.451433 119.01574 87.833915 118.81497 C 88.598978 117.40957 88.598978 116.50609 87.833915 116.10454 C 87.73827 116.00416 87.654477 115.95365 87.582768 115.95365 z M 237.14315 116.26319 C 236.56445 116.26319 236.2755 116.78467 236.2755 117.82795 C 236.2755 118.87124 236.56445 119.39271 237.14315 119.39271 C 238.10763 119.39271 238.59009 118.87124 238.59009 117.82795 C 238.59009 116.78467 238.10763 116.26319 237.14315 116.26319 z M 75.210913 118.81497 C 74.637141 118.81497 74.349984 119.21646 74.349984 120.01955 C 74.349984 120.82264 74.637141 121.22413 75.210913 121.22413 C 75.975976 121.22413 76.35813 120.82264 76.35813 120.01955 C 76.35813 119.21646 75.975976 118.81497 75.210913 118.81497 z M 178.4072 120.01903 C 178.21428 120.01903 178.11781 120.12301 178.11781 120.33167 C 178.11781 120.54031 178.3108 121.1663 178.69659 122.20959 C 179.27528 123.25288 179.85422 124.08786 180.43291 124.71383 C 181.01161 125.3398 181.39708 125.54829 181.58995 125.33964 C 181.78272 125.13099 181.58972 123.77453 181.01117 121.27063 C 180.81841 120.85332 180.23999 120.54033 179.27536 120.33167 C 178.88958 120.12301 178.60006 120.01903 178.4072 120.01903 z M 67.75142 120.01955 L 67.75142 121.22413 L 68.898637 121.22413 L 68.898637 120.01955 L 67.75142 120.01955 z M 63.770785 121.14868 C 63.555613 121.14868 63.447807 121.37442 63.447807 121.82616 C 63.447807 122.42848 63.638884 122.72998 64.021415 122.72998 C 64.977729 121.72611 64.977729 121.22413 64.021415 121.22413 C 63.92578 121.17393 63.842508 121.14868 63.770785 121.14868 z M 217.46838 122.20959 C 216.69682 122.62691 216.21436 123.14891 216.02144 123.77487 C 215.82872 124.40084 215.73257 125.02682 215.73257 125.6528 C 217.08278 125.6528 218.14376 124.92231 218.91532 123.46171 L 217.46838 122.20959 z M 190.84882 123.46171 C 189.88439 123.46171 189.40239 124.08769 189.40239 125.33964 C 189.40239 126.38292 189.88439 126.9044 190.84882 126.9044 C 191.62043 126.9044 192.00637 126.38292 192.00637 125.33964 C 192.00637 124.08769 191.62043 123.46171 190.84882 123.46171 z M 78.940401 125.13913 L 78.940401 129.05414 L 80.948547 129.05414 C 80.948547 128.45183 80.852836 127.74883 80.661743 126.94574 C 80.47065 126.14266 79.896852 125.54067 78.940401 125.13913 z M 53.980168 126.64498 L 53.980168 129.05414 L 55.70151 129.05414 C 55.70151 128.25105 55.127751 127.44808 53.980168 126.64498 z M 72.628642 126.64498 L 74.06318 127.84956 L 75.210913 126.64498 L 72.628642 126.64498 z M 129.2195 126.9044 L 127.77308 128.15652 L 129.2195 128.15652 L 129.2195 126.9044 z M 92.711137 129.05414 C 93.284909 130.25877 94.145814 130.86126 95.293408 130.86126 L 95.293408 129.05414 L 92.711137 129.05414 z M 89.555257 132.3666 C 89.172726 132.3666 88.981649 132.56761 88.981649 132.96914 C 89.172742 133.37069 89.363819 133.57169 89.555257 133.57169 C 89.937739 133.57169 90.128866 133.37069 90.128866 132.96914 C 90.319959 132.56761 90.128832 132.3666 89.555257 132.3666 z M 242.64049 132.85132 L 242.64049 140.04985 L 244.08743 140.04985 L 244.08743 132.85132 L 242.64049 132.85132 z M 70.9073 132.96914 C 70.9073 133.97301 71.481038 134.67548 72.628642 135.07703 C 73.967555 135.47857 74.828431 135.67957 75.210913 135.67957 C 75.593444 135.4788 75.975599 135.07731 76.35813 134.475 C 76.740661 133.87268 76.836372 133.37069 76.644934 132.96914 L 70.9073 132.96914 z M 93.85887 134.17372 C 92.328746 134.17372 91.563403 135.0772 91.563403 136.88415 C 91.563403 138.6911 92.328746 140.09657 93.85887 141.10043 L 93.85887 134.17372 z M 81.522156 135.67957 L 81.522156 139.59458 L 82.669889 139.59458 L 81.522156 135.67957 z M 99.022896 135.67957 L 99.022896 136.88415 L 100.17063 136.88415 L 99.022896 135.67957 z M 76.644934 136.88415 C 75.49734 137.88801 74.923592 138.79149 74.923592 139.59458 L 76.644934 139.59458 L 76.644934 136.88415 z M 207.63074 137.54613 C 206.66631 137.54613 206.18431 137.96362 206.18431 138.79825 L 206.1838 138.79825 C 206.1838 141.30213 207.24472 142.55409 209.36655 142.55409 C 209.36655 141.92812 209.27045 140.98914 209.07768 139.73721 C 209.07768 138.48527 208.59527 137.75478 207.63074 137.54613 z M 200.39707 140.04985 C 200.01129 140.04985 199.81829 140.46733 199.81829 141.30197 C 199.81829 141.92793 200.01129 142.13642 200.39707 141.92777 C 200.97577 141.71913 201.26523 141.40614 201.26523 140.98881 C 201.26523 140.5715 200.97577 140.25851 200.39707 140.04985 z M 101.89197 140.19713 C 99.788075 140.19713 97.875187 140.6986 96.153821 141.70246 C 94.432455 142.50555 93.572066 144.11202 93.572066 146.52129 C 95.10224 146.52129 96.823534 146.0193 98.736092 145.01544 C 100.83999 143.8108 101.89197 142.20484 101.89197 140.19713 z M 169.76328 141.86938 C 169.54628 141.9085 169.43772 142.24078 169.43772 142.86673 C 169.43772 143.4927 169.63071 143.80569 170.0165 143.80569 C 171.17389 142.97107 171.17389 142.34508 170.0165 141.92777 C 169.92006 141.87561 169.83563 141.85633 169.76328 141.86938 z M 87.833915 146.22002 C 87.833915 146.62156 87.738204 147.32456 87.547111 148.32841 L 87.547111 150.13502 C 87.547111 151.74121 87.834219 153.44766 88.40804 155.25461 C 89.173103 157.06155 90.60724 157.96503 92.711137 157.96503 L 93.85887 157.96503 C 94.432692 157.76426 95.484674 157.56378 97.01475 157.363 C 98.736116 157.16223 99.788099 156.96123 100.17063 156.76046 C 100.36172 156.55969 100.45692 156.3592 100.45692 156.15843 C 100.45692 155.35534 100.17033 154.95385 99.596505 154.95385 C 99.022683 154.75307 98.448935 154.65258 97.875163 154.65258 C 97.301391 154.4518 96.727642 154.15082 96.153821 153.74927 C 95.580049 153.34773 95.292891 152.54423 95.292891 151.3396 C 93.954057 152.34346 92.998056 152.84545 92.424333 152.84545 C 92.041752 152.64468 91.085382 152.54418 89.555257 152.54418 C 89.555257 150.938 89.746384 149.73353 90.128866 148.93044 C 90.702687 148.12736 89.937812 147.22387 87.833915 146.22002 z M 206.1838 146.62257 L 206.1838 149.1263 L 206.1838 151.00422 C 206.37656 151.63019 206.85903 152.04768 207.63074 152.25634 C 208.78813 152.25634 209.36655 152.04786 209.36655 151.63054 C 209.36655 150.79591 208.98108 149.85694 208.20951 148.81366 C 207.43795 147.77038 206.76249 147.03989 206.1838 146.62257 z M 234.24978 146.62257 L 232.80336 148.18734 L 234.24978 149.75262 L 235.98611 148.18734 L 234.24978 146.62257 z M 133.55981 151.00422 C 132.59538 151.00422 131.72739 151.31721 130.95583 151.94318 C 130.37713 152.36049 130.08767 153.09098 130.08767 154.13426 L 133.55981 154.13426 L 133.55981 151.00422 z M 109.96073 155.17968 C 109.74555 155.17968 109.63827 155.40542 109.63827 155.85715 C 109.63827 156.45947 109.82935 156.76046 110.21188 156.76046 C 110.59441 156.55969 110.78549 156.2587 110.78549 155.85715 C 110.78549 155.45561 110.59441 155.25461 110.21188 155.25461 C 110.11623 155.20441 110.03244 155.17968 109.96073 155.17968 z M 111.35961 160.67546 C 110.78579 160.67546 110.49868 161.07747 110.49868 161.88056 C 110.49868 162.68365 110.78579 163.08514 111.35961 163.08514 C 112.12467 163.08514 112.50683 162.68365 112.50683 161.88056 C 112.50683 161.07747 112.12467 160.67546 111.35961 160.67546 z M 153.52396 161.64595 C 151.98084 162.68923 150.82339 164.14968 150.05182 166.02759 C 149.28021 167.69684 148.89479 169.3663 148.89479 171.03556 L 148.89479 172.28716 C 150.24505 171.66119 151.30593 170.30524 152.07754 168.21867 C 153.04197 165.92345 153.52396 163.941 153.52396 162.27175 L 153.52396 161.64595 z M 100.17063 165.79556 L 100.17063 168.50599 L 101.60517 168.50599 L 101.60517 165.79556 L 100.17063 165.79556 z M 109.06414 167.30142 L 109.06414 169.71057 C 110.02045 169.10826 110.49868 168.30528 110.49868 167.30142 L 109.06414 167.30142 z M 111.64642 176.03473 C 110.69011 176.03473 109.73369 176.33572 108.77734 176.93804 C 108.01228 177.54036 107.2474 178.24335 106.48239 179.04644 L 108.20373 179.04644 C 110.49892 179.04644 111.64642 178.04246 111.64642 176.03473 z M 90.128866 176.33601 C 89.555143 176.33601 89.268453 176.83799 89.268453 177.84186 C 89.268453 178.64494 89.555143 179.04644 90.128866 179.04644 C 90.893928 179.04644 91.276599 178.64494 91.276599 177.84186 C 91.276599 176.83799 90.893928 176.33601 90.128866 176.33601 z M 157.28549 176.66932 C 156.32101 176.66932 155.35661 176.98231 154.39213 177.60828 C 153.62056 178.02559 153.23457 178.96457 153.23457 180.42516 L 157.28549 180.42516 L 157.28549 176.66932 z M 231.35642 178.85988 C 230.58481 178.85988 230.19939 179.38188 230.19939 180.42516 C 230.19939 181.25979 230.58481 181.67677 231.35642 181.67677 C 232.12798 181.67677 232.51397 181.25979 232.51397 180.42516 C 232.51397 179.38188 232.12798 178.85988 231.35642 178.85988 z M 88.730501 181.38014 C 88.515324 181.38014 88.40804 181.6064 88.40804 182.05814 C 88.40804 182.66045 88.599118 182.96144 88.981649 182.96144 C 89.36418 182.76067 89.555257 182.45968 89.555257 182.05814 C 89.555257 181.65659 89.36418 181.45559 88.981649 181.45559 C 88.886004 181.4054 88.802211 181.38014 88.730501 181.38014 z M 53.980168 194.70646 C 53.597646 195.10801 52.450125 196.01148 50.537484 197.41689 C 48.624847 198.82229 47.668408 199.82627 47.668408 200.42859 L 56.562439 203.13902 L 53.980168 194.70646 z M 71.480908 210.367 L 71.480908 211.87234 L 72.628642 210.367 L 71.480908 210.367 z M 80.374939 210.367 C 79.036104 210.367 78.175199 210.86848 77.792668 211.87234 L 81.522156 211.87234 C 81.522156 210.86848 81.140001 210.367 80.374939 210.367 z M 215.76823 210.413 C 215.55118 210.45213 215.44266 210.7844 215.44266 211.41035 C 215.44266 212.24498 215.63566 212.55797 216.02144 212.34931 C 216.40722 212.14068 216.60022 211.82769 216.60022 211.41035 C 216.60022 210.99304 216.40722 210.68005 216.02144 210.47139 C 215.92501 210.41923 215.84053 210.39995 215.76823 210.413 z M 37.340356 217.59447 C 36.766565 217.59447 36.479427 217.79547 36.479427 218.19702 C 36.670683 218.59857 36.95782 218.79905 37.340356 218.79905 C 37.722878 218.79905 37.913965 218.59857 37.913965 218.19702 C 38.105226 217.79547 37.914139 217.59447 37.340356 217.59447 z M 45.373458 219.70287 L 45.373458 220.90745 C 45.373458 222.31285 45.756134 223.21633 46.521191 223.61788 L 46.521191 222.71405 C 46.712447 222.51328 46.807996 222.3128 46.807996 222.11202 C 46.807996 220.9074 46.329776 220.10441 45.373458 219.70287 z M 234.24978 223.93 C 232.32092 223.93 231.35642 225.07746 231.35642 227.37268 L 234.24978 227.37268 L 234.24978 223.93 z M 42.791187 224.82245 C 40.496024 224.82245 39.061882 225.22395 38.48809 226.02703 C 37.914303 226.83013 38.009851 227.6331 38.774894 228.43619 C 39.539947 229.44004 40.87855 230.34353 42.791187 231.14661 C 44.895089 231.9497 47.38172 232.35119 50.25068 232.35119 C 50.441935 232.35119 50.250858 231.9497 49.677071 231.14661 C 49.103284 230.34353 48.337922 229.44004 47.381604 228.43619 C 46.425286 227.6331 45.468847 226.83013 44.512528 226.02703 C 43.55621 225.22395 42.982452 224.82245 42.791187 224.82245 z M 32.749939 227.53288 L 32.749939 228.73746 L 34.184477 228.73746 L 34.184477 227.53288 L 32.749939 227.53288 z M 40.209432 231.44789 C 39.63564 231.44789 39.348503 231.84938 39.348503 232.65247 C 39.348503 233.65633 39.63564 234.15832 40.209432 234.15832 C 40.974485 234.15832 41.356649 233.65633 41.356649 232.65247 C 41.356649 231.84938 40.974485 231.44789 40.209432 231.44789 z " />
  <g
     inkscape:label="Layer 1"
     inkscape:groupmode="layer"
     id="layer1">
    <g
       id="text5"
       style="font-size:50.8px;font-family:Sans;-inkscape-font-specification:'Sans, Normal';white-space:pre;inline-size:163.905;fill:#ffffff;stroke-width:0.206375"
       transform="matrix(4.9250835,0,0,5.4370788,-419.86392,-233.7361)"
       aria-label="SH">
      <g
         id="g5" />
    </g>
  </g>
  <metadata
     id="metadata1">
    <rdf:RDF>
      <cc:Work
         rdf:about="">
        <dc:title>Shannon Heylmun</dc:title>
        <dc:creator>
          <cc:Agent>
            <dc:title>Shannon Heylmun</dc:title>
          </cc:Agent>
        </dc:creator>
        <dc:date>February 28, 2026</dc:date>
      </cc:Work>
    </rdf:RDF>
  </metadata>
</svg>
